  <svg id="myName" xmlns="http://www.w3.org/2000/svg" viewBox="0 0 670.23939 334.30332" preserveAspectRatio="xMinyMin meet">
     <g id="layer2" transform="translate(-37.407 .45385)" >
      <g fill="none" stroke-width="2px">
        <path class="cls-1" id="A1"  d="M7.88,133.28H40.32v6.34h-26v20.3h26v6.33h-26V198H7.88Z"/>
        <path class="cls-1" id="L1" d="M98.3,150.14V198H92.22V189.8a26.24,26.24,0,0,1-8.69,7.09,24.28,24.28,0,0,1-27.91-5A24.73,24.73,0,0,1,48.42,174a24.25,24.25,0,0,1,7.27-17.7,23.67,23.67,0,0,1,17.47-7.35,22.68,22.68,0,0,1,10.68,2.51A24.19,24.19,0,0,1,92.22,159v-8.81Zm-24.63,4.71a18.58,18.58,0,0,0-16.42,9.63,19.37,19.37,0,0,0,0,19.35,18.89,18.89,0,0,0,7,7.19,18.22,18.22,0,0,0,9.38,2.57A19.24,19.24,0,0,0,83.21,191a17.86,17.86,0,0,0,7-6.9,19.67,19.67,0,0,0,2.44-9.81,19,19,0,0,0-5.48-13.89A18.09,18.09,0,0,0,73.67,154.85Z"/>
        <path class="cls-1" id="A2" d="M112.56,198V131.65h6.16v26.72a25.82,25.82,0,0,1,8.67-7.1,24.27,24.27,0,0,1,27.86,5,24.71,24.71,0,0,1,7.19,17.9,24.34,24.34,0,0,1-7.26,17.74,23.66,23.66,0,0,1-17.46,7.35,22.38,22.38,0,0,1-10.6-2.51,24.79,24.79,0,0,1-8.4-7.53V198Zm24.65-4.71a18.58,18.58,0,0,0,16.4-9.64,19.56,19.56,0,0,0,0-19.42,18.73,18.73,0,0,0-7-7.19,18,18,0,0,0-9.33-2.58,19.16,19.16,0,0,0-9.6,2.58,17.89,17.89,0,0,0-7,6.93,19.81,19.81,0,0,0-2.44,9.82,19.1,19.1,0,0,0,5.47,13.91A18.12,18.12,0,0,0,137.21,193.33Z"/>
        <path class="cls-1" id="N1" d="M175.8,130.42a4.87,4.87,0,0,1,3.59,1.5,5,5,0,0,1,1.49,3.61,5.1,5.1,0,0,1-5.08,5.06,5.11,5.11,0,0,1-5-5.06,4.91,4.91,0,0,1,1.49-3.61A4.82,4.82,0,0,1,175.8,130.42Zm-3.06,19.72h6.16V198h-6.16Z"/>
        <path class="cls-1" id="M1" d="M239.43,150.14V198h-6.08V189.8a26.24,26.24,0,0,1-8.69,7.09,24.28,24.28,0,0,1-27.91-5,24.73,24.73,0,0,1-7.2-17.94,24.25,24.25,0,0,1,7.27-17.7,23.67,23.67,0,0,1,17.47-7.35A22.68,22.68,0,0,1,225,151.42a24.19,24.19,0,0,1,8.38,7.53v-8.81Zm-24.63,4.71a18.61,18.61,0,0,0-16.43,9.63,19.4,19.4,0,0,0,0,19.35,18.89,18.89,0,0,0,7,7.19,18.22,18.22,0,0,0,9.38,2.57,19.27,19.27,0,0,0,9.59-2.55,17.86,17.86,0,0,0,7-6.9,19.77,19.77,0,0,0,2.44-9.81,19,19,0,0,0-5.48-13.89A18.1,18.1,0,0,0,214.8,154.85Z"/>
        <path class="cls-1" id="O1" d="M253.29,150.14h6.17v8.59a25.72,25.72,0,0,1,8.18-7.38,20.15,20.15,0,0,1,9.78-2.44,17,17,0,0,1,9.53,2.73,16.28,16.28,0,0,1,6.14,7.35q2,4.62,2,14.39V198h-6.16V175.19q0-8.28-.69-11.05a12.08,12.08,0,0,0-4.11-7.15,12.4,12.4,0,0,0-7.92-2.4,15.18,15.18,0,0,0-10,3.7,17.28,17.28,0,0,0-5.83,9.15q-.88,3.57-.88,13V198h-6.17Z"/>
        <path class="cls-1" id="I1" d="M334.6,133.28h12.9q10.78,0,14.61.88a16.7,16.7,0,0,1,9.38,5.67,16.19,16.19,0,0,1,3.61,10.69,17.3,17.3,0,0,1-2.49,9.3,15.58,15.58,0,0,1-7.11,6.06q-4.62,2-12.76,2.09L376,198h-8L344.73,168h-3.66V198H334.6Zm6.47,6.34v22l11.15.09c4.33,0,7.52-.41,9.59-1.23a10,10,0,0,0,4.86-3.94,11,11,0,0,0,1.74-6.06,10.48,10.48,0,0,0-1.77-5.92,9.8,9.8,0,0,0-4.63-3.8q-2.86-1.16-9.52-1.15Z"/>
        <path class="cls-1" id="R1" d="M435.67,150.14V198h-6.08V189.8a26.24,26.24,0,0,1-8.69,7.09,24.28,24.28,0,0,1-27.91-5,24.73,24.73,0,0,1-7.2-17.94,24.25,24.25,0,0,1,7.27-17.7,23.67,23.67,0,0,1,17.47-7.35,22.65,22.65,0,0,1,10.68,2.51,24.19,24.19,0,0,1,8.38,7.53v-8.81ZM411,154.85a18.58,18.58,0,0,0-16.42,9.63,19.37,19.37,0,0,0,0,19.35,18.89,18.89,0,0,0,7,7.19,18.23,18.23,0,0,0,9.39,2.57,19.23,19.23,0,0,0,9.58-2.55,17.86,17.86,0,0,0,7-6.9,19.67,19.67,0,0,0,2.44-9.81,19,19,0,0,0-5.47-13.89A18.11,18.11,0,0,0,411,154.85Z"/>
        <path class="cls-1" id="" d="M449.49,150.14h6.17v8.28a23.74,23.74,0,0,1,6.61-6.69,18.71,18.71,0,0,1,9.82-2.82,16.46,16.46,0,0,1,6.61,1.36,14.31,14.31,0,0,1,5.12,3.64,19.47,19.47,0,0,1,3.43,6.49,22.67,22.67,0,0,1,7.69-8.56,18.18,18.18,0,0,1,9.92-2.93,15.6,15.6,0,0,1,8.77,2.51,14.93,14.93,0,0,1,5.64,7q1.85,4.49,1.84,13.47V198h-6.29V171.89q0-7.71-1.1-10.59a9.51,9.51,0,0,0-3.75-4.64,11.15,11.15,0,0,0-6.34-1.76,13.79,13.79,0,0,0-8.18,2.64,15.22,15.22,0,0,0-5.42,7q-1.71,4.41-1.71,14.7V198h-6.16V173.52q0-8.67-1.08-11.78a9.87,9.87,0,0,0-3.77-5,10.84,10.84,0,0,0-6.38-1.87,13.74,13.74,0,0,0-8,2.57,15.29,15.29,0,0,0-5.5,6.93q-1.79,4.36-1.78,13.34V198h-6.17Z"/>
        <path class="cls-1" id="" d="M536.23,130.42a4.89,4.89,0,0,1,3.6,1.5,5,5,0,0,1,1.49,3.61,5.07,5.07,0,0,1-10.13,0,5,5,0,0,1,1.49-3.61A4.85,4.85,0,0,1,536.23,130.42Zm-3.06,19.72h6.17V198h-6.17Z"/>
        <path class="cls-1" id="" d="M549.81,150.14h6.3v7a22.06,22.06,0,0,1,5.94-6.18,11.71,11.71,0,0,1,6.52-2.05,11.22,11.22,0,0,1,5.46,1.63l-3.22,5.19a8.7,8.7,0,0,0-3.26-.83,8.9,8.9,0,0,0-5.94,2.53c-1.91,1.69-3.36,4.3-4.36,7.86q-1.14,4.08-1.14,16.55V198h-6.3Z"/>
        <path class="cls-1" id="" d="M619.59,182.14l5.19,2.74a28.26,28.26,0,0,1-5.9,8.09,23.45,23.45,0,0,1-7.54,4.69,26.3,26.3,0,0,1-9.47,1.61q-11.72,0-18.33-7.68a25.9,25.9,0,0,1-6.61-17.37,25.6,25.6,0,0,1,5.6-16.24q7.1-9.07,19-9.07,12.24,0,19.56,9.29,5.19,6.56,5.29,16.37h-43.1a19.52,19.52,0,0,0,5.33,13.68,17,17,0,0,0,12.74,5.34,20.44,20.44,0,0,0,7.12-1.27,18.62,18.62,0,0,0,5.88-3.38A28.54,28.54,0,0,0,619.59,182.14Zm0-12.89a20.51,20.51,0,0,0-3.59-7.88,17.17,17.17,0,0,0-6.24-4.76,19.14,19.14,0,0,0-8.15-1.8,17.58,17.58,0,0,0-12.13,4.53q-3.69,3.3-5.59,9.91Z"/>
        <path class="cls-1" id="" d="M633.94,150.14h35.17L642,192.58h26.24V198H631.38l27.1-42.48H633.94Z"/>

      <!--  <path class="letter" id="A1" d="m37.857 214.13 45.357-93.929 45.714 93.929-18.214-37.5h-54.643"  stroke="#fff"  stroke-dasharray="305.2" stroke-dashoffset="305.2"/>
       <path class="letter" id="L1" d="m145.18 119.48v93.929h30.536" stroke="#02ff00" stroke-dasharray="124.5" stroke-dashoffset="124.5"/>
       <path class="letter" id="A2" d="m183.86 214.13 45.357-93.929 45.714 93.929-18.214-37.5h-54.643" stroke="#fff" stroke-dasharray="305.2" stroke-dashoffset="305.2"/>
       <path class="letter" id="N1" d="m289.11 213.66v-93.929l71.25 93.929v-93.929" stroke="#fff" stroke-dasharray="305.8" stroke-dashoffset="305.8"/>
       <path class="letter" id="M1" d="m425.71 213.2v-93.929l45.714 93.929 45.536-93.929v93.929" stroke="#fff" stroke-dasharray="396.8" stroke-dashoffset="396.8"/>
       <path class="letter" id="O1" d="m583.39 119.73c12.235-0.0426 24.415 4.9216 33.133 13.507 8.718 8.585 13.869 20.687 14.01 32.922 0.14077 12.207-4.7064 24.398-13.189 33.176-8.4828 8.7788-20.499 14.041-32.704 14.324-12.18 0.28186-24.402-4.3985-33.278-12.745-8.875-8.3462-14.297-20.26-14.758-32.434-0.47612-12.559 4.3467-25.234 13.05-34.301 8.7028-9.0672 21.168-14.405 33.736-14.449z" stroke="#fff" stroke-dasharray="295.1" stroke-dashoffset="295.1"/>
       <path class="letter" id="I1" d="m649.82 213.66v-93.929" stroke="#fff" stroke-dasharray="94" stroke-dashoffset="94"/>
       <path class="letter" id="R1" d="m673.39 213.75v-93.929c0.65462-0.0164 1.3097-0.0164 1.9643 0 8.014 0.2005 16.044 2.9878 22.061 8.2847 6.0172 5.2969 9.8575 13.164 9.7245 21.18-0.1319 7.9468-4.1357 15.593-10.11 20.835-5.974 5.2421-13.769 8.1775-21.676 8.9867-0.4857 0.0497-0.97218 0.0918-1.4592 0.12627l32.36 34.52" stroke="#fff" stroke-dasharray="240.5" stroke-dashoffset="240.5" />
      -->
      </g>
       <g font-size="50px" font-family="&apos;Poiret One&apos;" fill="#dbdbdb">
       <text id="front" style="word-spacing:0px;letter-spacing:0px" xml:space="preserve" line-height="125%" y="271.70639" x="176.99544" sodipodi:linespacing="125%"><tspan id="tspan4301" sodipodi:role="line" x="176.99544" y="271.70639">FRONT</tspan></text>
       <text class="slash" style="word-spacing:0px;letter-spacing:0px" xml:space="preserve" line-height="125%" y="271.70639" x="318.28119" sodipodi:linespacing="125%"><tspan id="tspan4305" sodipodi:role="line" x="318.28119" y="271.70639">/</tspan></text>
       <text id="end" style="word-spacing:0px;letter-spacing:0px" xml:space="preserve" line-height="125%" y="271.70639" x="357.13831" sodipodi:linespacing="125%"><tspan id="tspan4309" sodipodi:role="line" x="357.13831" y="271.70639">END</tspan></text>
       <text class="slash" style="word-spacing:0px;letter-spacing:0px" xml:space="preserve" line-height="125%" y="271.70639" x="441.13831" sodipodi:linespacing="125%"><tspan id="tspan4313" sodipodi:role="line" x="441.13831" y="271.70639">/</tspan></text>
       <text id="dev" style="word-spacing:0px;letter-spacing:0px" xml:space="preserve" line-height="125%" y="271.70639" x="481.28119" sodipodi:linespacing="125%"><tspan id="tspan4317" sodipodi:role="line" x="481.28119" y="271.70639">DEV</tspan></text>
      </g>
     </g>
    </svg>