<svg id="myName" xmlns="http://www.w3.org/2000/svg" viewBox="0 0 670.24 334.3"><defs><style>.cls-1{fill:#fff;}</style></defs><title>name2</title><path class="cls-1" d="M50,215.71H48V124.42H97.24v2H50V169H91.75V171H50Z"/><path class="cls-1" d="M151.44,185H105.2L92.8,215.71H90.58L127.28,123h2.22l36.69,92.73H164Zm-45.32-2h44.53l-22.33-57.34Z"/><path class="cls-1" d="M229.14,137.35a25.57,25.57,0,0,1,0,17.63,19.87,19.87,0,0,1-10.71,11.36c26.78,4.7,25.21,49.37-4.83,49.37H173V124.42h37C219.87,124.42,226.27,130,229.14,137.35Zm-54.07,28.47h34.87c9,0,14.76-5.09,17.37-11.62a22.69,22.69,0,0,0,0-16.07c-2.61-6.53-8.35-11.62-17.37-11.62H175.07Zm0,47.93H213.6c29.12,0,29.12-45.84,0-45.84H175.07Z"/><path class="cls-1" d="M280.21,126.25H260.75v87.5h19.46v2H239.33v-2h19.46v-87.5H239.33v-1.83h40.88Z"/><path class="cls-1" d="M344.59,185H298.36L286,215.71h-2.22L320.43,123h2.22l36.7,92.73h-2.22Zm-45.32-2h44.54l-22.34-57.34Z"/><path class="cls-1" d="M366.14,215.71V124.16l1.83.13,60.73,87.76V124.29h1.95v91.42h-2.08l-60.34-87.24v87.24Z"/><path class="cls-1" d="M490.86,215.71h-2V124.29h31.6c36.57,0,36.57,53.41,0,53.41H505.75l42,38h-3l-42.06-38v-2H520.5c34,0,34-49.36,0-49.36H490.86Z"/><path class="cls-1" d="M613,185H566.73l-12.4,30.69h-2.22L588.81,123H591l36.69,92.73H625.5Zm-45.32-2h44.53l-22.33-57.34Z"/></svg>