<svg id="Capa_1" data-name="Capa 1" xmlns="http://www.w3.org/2000/svg" viewBox="0 0 128 128"><title>bateria</title><path d="M74.45,42.33H69V39H59v3.33H53.55a2.89,2.89,0,0,0-2.88,2.89V86.11A2.89,2.89,0,0,0,53.55,89h20.9a2.89,2.89,0,0,0,2.88-2.89V45.22A2.89,2.89,0,0,0,74.45,42.33ZM60.67,40.67h6.66v1.66H60.67Zm15,45.44a1.22,1.22,0,0,1-1.22,1.22H53.55a1.22,1.22,0,0,1-1.22-1.22V45.22A1.22,1.22,0,0,1,53.55,44h20.9a1.22,1.22,0,0,1,1.22,1.22Z"/><path d="M67.33,53.26a.86.86,0,0,0-.5-.84l-.65-.27-.41.51-9.1,14.67H61.5V78.07a.89.89,0,0,0,.49.84l.66.29.42-.53,8.14-15.5H67.33Zm1.13,11.57L63.17,74.92V65.67H59.66l6-9.69v8.85Z"/><path d="M55.87,13.17H64A2,2,0,0,0,64,9.1H55.87a2,2,0,1,0,0,4.07Z"/><path d="M70.1,13.17h2a2,2,0,1,0,0-4.07h-2a2,2,0,0,0,0,4.07Z"/><path d="M89.61,3H38.39a9,9,0,0,0-9,9V116a9,9,0,0,0,9,9H89.61a9,9,0,0,0,9-9V12A9,9,0,0,0,89.61,3ZM94.5,116a4.89,4.89,0,0,1-4.89,4.89H38.39A4.89,4.89,0,0,1,33.5,116V19.27h61Zm0-100.84h-61V12a4.89,4.89,0,0,1,4.89-4.89H89.61A4.89,4.89,0,0,1,94.5,12Z"/></svg>