<svg id="Capa_1" data-name="Capa 1" xmlns="http://www.w3.org/2000/svg" viewBox="0 0 128 128"><title>call</title><path d="M105.52,50.61a41.52,41.52,0,1,0-83-.1v.1A17.61,17.61,0,0,0,5.88,68.15v2.08A17.62,17.62,0,0,0,23.52,87.87h.93L31.82,99.6a27.76,27.76,0,0,0,23.77,13.18h1.46a8.31,8.31,0,1,0,0-4.15H55.59A23.68,23.68,0,0,1,35.35,97.32l-6-9.45h1.46a4.17,4.17,0,0,0,4.15-4.15V54.66a4.16,4.16,0,0,0-4.15-4.15H26.63a37.37,37.37,0,0,1,74.74,0H97.21a4.16,4.16,0,0,0-4.15,4.15V83.72a4.17,4.17,0,0,0,4.15,4.15h7.27a17.63,17.63,0,0,0,17.65-17.64V68.15A17.62,17.62,0,0,0,105.52,50.61ZM65,106.56a4.15,4.15,0,1,1-4.15,4.15A4.16,4.16,0,0,1,65,106.56ZM30.79,54.66V83.72H23.52A13.46,13.46,0,0,1,10,70.23V68.15A13.46,13.46,0,0,1,23.52,54.66ZM118,70.23a13.46,13.46,0,0,1-13.49,13.49H97.21V54.66h7.27A13.46,13.46,0,0,1,118,68.15Z"/><path d="M81.23,24.66a7.88,7.88,0,0,1-.83-.52c-.31-.2-.62-.41-.83-.52a2,2,0,0,0-2.8.73,2,2,0,0,0,.72,2.8c.21.11.52.31.83.52a4.22,4.22,0,0,0,.94.52,2,2,0,0,0,1,.31,1.92,1.92,0,0,0,1.76-1A2.09,2.09,0,0,0,81.23,24.66Z"/><path d="M64,19.37A30,30,0,0,0,41.17,29.85a2.11,2.11,0,0,0,.2,2.91,2.21,2.21,0,0,0,1.35.52,1.88,1.88,0,0,0,1.56-.73A26,26,0,0,1,69.6,24.14a2.21,2.21,0,0,0,2.5-1.55,2.18,2.18,0,0,0-1.56-2.5A28.56,28.56,0,0,0,64,19.37Z"/></svg>