<svg id="Capa_1" data-name="Capa 1" xmlns="http://www.w3.org/2000/svg" viewBox="0 0 128 128"><title>camaraf</title><path d="M29,9.11a5.21,5.21,0,1,0,5.22,5.21A5.21,5.21,0,0,0,29,9.11Zm0,7a1.74,1.74,0,1,1,1.74-1.74A1.73,1.73,0,0,1,29,16.06Z"/><path d="M40,11.35a3,3,0,1,0,3,3A3,3,0,0,0,40,11.35Zm0,4a1,1,0,1,1,0-2,1,1,0,1,1,0,2Z"/><path d="M78.94,40.34h6.15a1.54,1.54,0,0,0,0-3.08H78.94a1.54,1.54,0,0,0,0,3.08Z"/><path d="M89.71,40.34h1.54a1.54,1.54,0,1,0,0-3.08H89.71a1.54,1.54,0,0,0,0,3.08Z"/><path d="M104.48,32.64H65.71a6.79,6.79,0,0,0-6.78,6.79v78.79A6.79,6.79,0,0,0,65.71,125h38.77a6.79,6.79,0,0,0,6.78-6.78V39.43A6.79,6.79,0,0,0,104.48,32.64Zm3.7,85.58a3.7,3.7,0,0,1-3.7,3.7H65.71a3.71,3.71,0,0,1-3.71-3.7V45h46.18Zm0-76.34H62V39.43a3.72,3.72,0,0,1,3.71-3.71h38.77a3.71,3.71,0,0,1,3.7,3.71Z"/><path d="M62,92.28H23.52a3.71,3.71,0,0,1-3.7-3.71V25.31H66v7.33h3.07V9.78A6.79,6.79,0,0,0,62.29,3H23.52a6.79,6.79,0,0,0-6.78,6.78V88.57a6.79,6.79,0,0,0,6.78,6.79H62ZM19.82,9.78a3.7,3.7,0,0,1,3.7-3.7H62.29A3.71,3.71,0,0,1,66,9.78V22.24H19.82Z"/><path d="M73.56,49.56a1.73,1.73,0,0,0-2.44,0L66.8,53.88a1.73,1.73,0,0,0,0,2.44,1.74,1.74,0,0,0,2.44,0L73.56,52A1.73,1.73,0,0,0,73.56,49.56Z"/><path d="M80.46,49.56a1.73,1.73,0,0,0-2.44,0l-9.49,9.49A1.73,1.73,0,1,0,71,61.49L80.46,52A1.73,1.73,0,0,0,80.46,49.56Z"/></svg>