<svg id="Capa_1" data-name="Capa 1" xmlns="http://www.w3.org/2000/svg" viewBox="0 0 128 128"><title>camaraP</title><path d="M71,38.11a5.21,5.21,0,1,0,5.22,5.21A5.21,5.21,0,0,0,71,38.11Zm0,7a1.74,1.74,0,1,1,1.74-1.74A1.73,1.73,0,0,1,71,45.06Z"/><path d="M82,40.35a3,3,0,1,0,3,3A3,3,0,0,0,82,40.35Zm0,4a1,1,0,0,1,0-2,1,1,0,1,1,0,2Z"/><path d="M37.94,11.34h6.15a1.54,1.54,0,0,0,0-3.08H37.94a1.54,1.54,0,1,0,0,3.08Z"/><path d="M48.71,11.34h1.54a1.54,1.54,0,0,0,0-3.08H48.71a1.54,1.54,0,1,0,0,3.08Z"/><path d="M104.48,32.64H65.71a6.79,6.79,0,0,0-6.78,6.79v78.79A6.79,6.79,0,0,0,65.71,125h38.77a6.79,6.79,0,0,0,6.78-6.78V39.43A6.79,6.79,0,0,0,104.48,32.64Zm3.7,85.58a3.7,3.7,0,0,1-3.7,3.7H65.71a3.71,3.71,0,0,1-3.71-3.7V54h46.18Zm0-67.34H62V39.43a3.72,3.72,0,0,1,3.71-3.71h38.77a3.71,3.71,0,0,1,3.7,3.71Z"/><path d="M62,92.28H23.52a3.71,3.71,0,0,1-3.7-3.71V16.31H66V32.64h3.07V9.78A6.79,6.79,0,0,0,62.29,3H23.52a6.79,6.79,0,0,0-6.78,6.78V88.57a6.79,6.79,0,0,0,6.78,6.79H62ZM19.82,9.78a3.7,3.7,0,0,1,3.7-3.7H62.29A3.71,3.71,0,0,1,66,9.78v3.46H19.82Z"/><path d="M30.56,21.56a1.73,1.73,0,0,0-2.44,0L23.8,25.88a1.73,1.73,0,0,0,0,2.44,1.74,1.74,0,0,0,2.44,0L30.56,24A1.73,1.73,0,0,0,30.56,21.56Z"/><path d="M37.46,21.56a1.73,1.73,0,0,0-2.44,0l-9.49,9.49A1.73,1.73,0,1,0,28,33.49L37.46,24A1.73,1.73,0,0,0,37.46,21.56Z"/></svg>