<svg id="Capa_1" data-name="Capa 1" xmlns="http://www.w3.org/2000/svg" viewBox="0 0 128 128"><title>censores</title><path d="M55.87,13.17H64A2,2,0,0,0,64,9.1H55.87a2,2,0,1,0,0,4.07Z"/><path d="M70.1,13.17h2a2,2,0,1,0,0-4.07h-2a2,2,0,0,0,0,4.07Z"/><path d="M89.61,3H38.39a9,9,0,0,0-9,9V116a9,9,0,0,0,9,9H89.61a9,9,0,0,0,9-9V12A9,9,0,0,0,89.61,3ZM94.5,116a4.89,4.89,0,0,1-4.89,4.89H38.39A4.89,4.89,0,0,1,33.5,116V19.27h61Zm0-100.84h-61V12a4.89,4.89,0,0,1,4.89-4.89H89.61A4.89,4.89,0,0,1,94.5,12Z"/><path d="M86.08,37.5H41.92a4.42,4.42,0,0,0-4.42,4.42V86.08a4.42,4.42,0,0,0,4.42,4.42H86.08a4.42,4.42,0,0,0,4.42-4.42V41.92A4.42,4.42,0,0,0,86.08,37.5ZM70.82,39.27,70.38,41H57.62l-.44-1.76ZM39.27,57.18l1.76.44V70.38l-1.76.44ZM57.18,88.73,57.62,87H70.38l.44,1.76Zm28.9,0H72.64l-.72-2.86a.89.89,0,0,0-.85-.67H56.93a.89.89,0,0,0-.85.67l-.72,2.86H41.92a2.64,2.64,0,0,1-2.65-2.65V72.64l2.86-.72a.88.88,0,0,0,.67-.85V56.93a.88.88,0,0,0-.67-.85l-2.86-.72V41.92a2.64,2.64,0,0,1,2.65-2.65H55.36l.72,2.86a.89.89,0,0,0,.85.67H71.07a.89.89,0,0,0,.85-.67l.72-2.86H86.08a2.64,2.64,0,0,1,2.65,2.65V55.36l-2.86.72a.88.88,0,0,0-.67.85V71.07a.88.88,0,0,0,.67.85l2.86.72V86.08A2.64,2.64,0,0,1,86.08,88.73Zm2.65-17.91L87,70.38V57.62l1.76-.44Z"/><path d="M81.67,44.57H46.33a1.76,1.76,0,0,0-1.76,1.76V81.67a1.76,1.76,0,0,0,1.76,1.76H81.67a1.76,1.76,0,0,0,1.76-1.76V46.33A1.76,1.76,0,0,0,81.67,44.57ZM46.33,81.67V46.33H81.67V81.67Z"/></svg>