<svg xmlns="http://www.w3.org/2000/svg" viewBox="0 0 68.1 69.9"><defs><style>.cls-1{fill:#4cad33;}</style></defs><title>Recurso 1</title><g id="Capa_2" data-name="Capa 2"><g id="Capa_1-2" data-name="Capa 1"><path class="cls-1" d="M19,31.2A18.07,18.07,0,0,0,5.6,36.9,18.64,18.64,0,0,0,0,50.6,18.26,18.26,0,0,0,5.6,64.2,18.07,18.07,0,0,0,19,69.9a18.67,18.67,0,0,0,13.6-5.7,18.65,18.65,0,0,0,5.6-13.6,19,19,0,0,0-5.6-13.7A18.51,18.51,0,0,0,19,31.2Zm7.2,26.5a9.44,9.44,0,0,1-7.1,3,9.76,9.76,0,0,1-7.1-3,10.22,10.22,0,0,1-3-7.2,9.88,9.88,0,0,1,3-7.2,9,9,0,0,1,7.1-2.9,9.36,9.36,0,0,1,7.2,2.9,10.21,10.21,0,0,1,2.9,7.2A10.67,10.67,0,0,1,26.2,57.7Z"/><polygon class="cls-1" points="56.1 4.6 34 26.8 39.8 32.6 61.9 10.4 56.1 4.6"/><rect class="cls-1" x="16" width="8.2" height="23.8"/><rect class="cls-1" x="43.8" y="41.8" width="24.3" height="8.2"/></g></g></svg>