<svg id="Capa_1" data-name="Capa 1" xmlns="http://www.w3.org/2000/svg" viewBox="0 0 128 128"><title>consola_censor</title><path d="M99.08,68H59.92A3.91,3.91,0,0,0,56,71.92v39.16A3.91,3.91,0,0,0,59.92,115H99.08a3.91,3.91,0,0,0,3.92-3.92V71.92A3.91,3.91,0,0,0,99.08,68ZM85.55,69.57l-.39,1.56H73.84l-.39-1.56Zm-28,15.88,1.56.39V97.16l-1.56.39Zm15.88,28,.39-1.56H85.16l.39,1.56Zm25.63,0H87.16l-.63-2.54a.78.78,0,0,0-.76-.59H73.23a.78.78,0,0,0-.76.59l-.63,2.54H59.92a2.35,2.35,0,0,1-2.35-2.35V99.16l2.54-.63a.78.78,0,0,0,.59-.76V85.23a.78.78,0,0,0-.59-.76l-2.54-.63V71.92a2.35,2.35,0,0,1,2.35-2.35H71.84l.63,2.54a.78.78,0,0,0,.76.59H85.77a.78.78,0,0,0,.76-.59l.63-2.54H99.08a2.35,2.35,0,0,1,2.35,2.35V83.84l-2.54.63a.78.78,0,0,0-.59.76V97.77a.78.78,0,0,0,.59.76l2.54.63v11.92A2.35,2.35,0,0,1,99.08,113.43Zm2.35-15.88-1.56-.39V85.84l1.56-.39Z"/><path d="M95.17,74.27H63.83a1.56,1.56,0,0,0-1.56,1.56v31.34a1.56,1.56,0,0,0,1.56,1.56H95.17a1.56,1.56,0,0,0,1.56-1.56V75.83A1.56,1.56,0,0,0,95.17,74.27Zm-31.34,32.9V75.83H95.17v31.34Z"/><path d="M54.5,118.07l-.2,0a6.79,6.79,0,0,1-6.83-6.67l-3.44-1h-5v-64H52.53V61.9a1.71,1.71,0,0,0,3.42,0V12A5.49,5.49,0,0,0,50.47,6.5H24.84A5.49,5.49,0,0,0,19.36,12v99.75L15.68,119a1.7,1.7,0,0,0,1.53,2.47H54.5ZM22.77,12a2.07,2.07,0,0,1,2.07-2.07H35.66V14.7a1.71,1.71,0,0,0,3.41,0V9.91h11.4A2.07,2.07,0,0,1,52.53,12V43H39.07V22.78a1.71,1.71,0,1,0-3.41,0V43H22.77Zm0,34.46H35.66v64H22.77ZM20,118.09l2.14-4.25H44.38a10.25,10.25,0,0,0,2.29,4.25Z"/></svg>