<svg id="Capa_1" data-name="Capa 1" xmlns="http://www.w3.org/2000/svg" viewBox="0 0 128 128"><title>consola_cable</title><path d="M105.05,83.54V80.93A3.08,3.08,0,0,0,102,77.86H96.76a3.08,3.08,0,0,0-3.08,3.07v2.61h-.94V95.86h2.84V98.7h2.84v2.51a17.42,17.42,0,0,1-10.71,16.3,15.15,15.15,0,1,0-22.77-2.89,17.4,17.4,0,0,1-5.36-12.57V91.12h2.84V88.28h2.84V76h-.94V73.35a3.08,3.08,0,0,0-3.08-3.07H56A3.08,3.08,0,0,0,53,73.35V76H52V88.28h2.84v2.84h2.84V103h0a19.4,19.4,0,0,0,19.36,18.46h.82c13.24-.33,22.43-8.54,22.43-20.21V98.7h2.84V95.86H106V83.54ZM54.84,73.35A1.18,1.18,0,0,1,56,72.17h5.22a1.18,1.18,0,0,1,1.18,1.18V76H54.84Zm-1,13V77.86h9.48v8.52H53.89Zm2.85,2.84v-.94h3.79v.94Zm7.58,17.06a13.26,13.26,0,1,1,25.24,5.65,12.32,12.32,0,1,0-24,0A13.22,13.22,0,0,1,64.32,106.28ZM77.9,119.52h-.46a10.56,10.56,0,1,1,.46,0ZM95.58,80.93a1.18,1.18,0,0,1,1.18-1.18H102a1.18,1.18,0,0,1,1.18,1.18v2.61H95.58Zm5.68,15.87H97.47v-.94h3.79ZM104.11,94H94.63V85.43h9.48Z"/><path d="M54.5,118.07l-.2,0a6.79,6.79,0,0,1-6.83-6.67l-3.44-1h-5v-64H52.53V61.9a1.71,1.71,0,0,0,3.42,0V12A5.49,5.49,0,0,0,50.47,6.5H24.84A5.49,5.49,0,0,0,19.36,12v99.75L15.68,119a1.7,1.7,0,0,0,1.53,2.47H54.5ZM22.77,12a2.07,2.07,0,0,1,2.07-2.07H35.66V14.7a1.71,1.71,0,0,0,3.41,0V9.91h11.4A2.07,2.07,0,0,1,52.53,12V43H39.07V22.78a1.71,1.71,0,1,0-3.41,0V43H22.77Zm0,34.46H35.66v64H22.77ZM20,118.09l2.14-4.25H44.38a10.25,10.25,0,0,0,2.29,4.25Z"/></svg>