<svg id="Capa_1" data-name="Capa 1" xmlns="http://www.w3.org/2000/svg" viewBox="0 0 128 128"><title>consola_dvd</title><path d="M54.5,118.07l-.2,0a6.79,6.79,0,0,1-6.83-6.67l-3.44-1h-5v-64H52.53V61.9a1.71,1.71,0,0,0,3.42,0V12A5.49,5.49,0,0,0,50.47,6.5H24.84A5.49,5.49,0,0,0,19.36,12v99.75L15.68,119a1.7,1.7,0,0,0,1.53,2.47H54.5ZM22.77,12a2.07,2.07,0,0,1,2.07-2.07H35.66V14.7a1.71,1.71,0,0,0,3.41,0V9.91h11.4A2.07,2.07,0,0,1,52.53,12V43H39.07V22.78a1.71,1.71,0,1,0-3.41,0V43H22.77Zm0,34.46H35.66v64H22.77ZM20,118.09l2.14-4.25H44.38a10.25,10.25,0,0,0,2.29,4.25Z"/><path d="M96.41,76.57a26.07,26.07,0,0,0-30.1-4.84v0l-.79.43-.13.08c-.47.26-.92.52-1.37.81l-.13.09q-.74.47-1.44,1l-.17.13c-.38.3-.76.6-1.14.92l-.31.27c-.42.37-.83.74-1.23,1.14s-.77.81-1.14,1.23l-.27.31c-.32.37-.62.75-.92,1.14l-.13.17c-.35.47-.68,1-1,1.43l-.09.14c-.29.45-.55.9-.81,1.36a1,1,0,0,0-.08.14l-.43.79h0a26,26,0,0,0,34.94,34.94v0l.79-.43a.57.57,0,0,0,.13-.08c.47-.25.92-.52,1.37-.81l.14-.09c.48-.31,1-.64,1.43-1l.17-.13c.39-.3.77-.6,1.14-.92l.31-.27c.42-.37.83-.74,1.23-1.14s.77-.81,1.14-1.23l.27-.31c.32-.37.62-.75.92-1.14l.13-.17c.35-.47.68-1,1-1.43A.64.64,0,0,1,100,109c.29-.45.56-.9.81-1.36l.08-.14.43-.79h0A26.08,26.08,0,0,0,96.41,76.57ZM78,70.75a24.22,24.22,0,0,1,21.68,35.06L87.84,99.34a10.76,10.76,0,0,0-14.2-14.2L67.17,73.3A24.37,24.37,0,0,1,78,70.75Zm19.92,38c-.22.32-.45.63-.68.93A3,3,0,0,1,97,110c-.22.28-.45.56-.69.83a3,3,0,0,1-.23.27c-.31.35-.63.7-1,1s-.67.65-1,1a3.11,3.11,0,0,1-.28.23c-.27.24-.54.47-.83.69l-.28.22c-.3.23-.61.46-.93.68l-.2.14c-.39.26-.79.52-1.19.76L83.94,104a10.83,10.83,0,0,0,1.68-1.37A11.32,11.32,0,0,0,87,100.92l11.83,6.47c-.24.4-.5.8-.76,1.19Zm-14.46-6.69-.18.13a6.85,6.85,0,0,1-1,.62l0,0-.16.09A9,9,0,0,1,70,90.86l.09-.17s0,0,0,0a9,9,0,0,1,.63-1l.13-.17a7.45,7.45,0,0,1,1.65-1.65l.18-.13a6.85,6.85,0,0,1,1-.62.05.05,0,0,1,0,0l.16-.09A9,9,0,0,1,86,99.1l-.09.17s0,0,0,0a7.59,7.59,0,0,1-.62,1l-.13.17a10.8,10.8,0,0,1-.76.89A8.11,8.11,0,0,1,83.46,102.09ZM57.94,81.38a2.43,2.43,0,0,0,.14-.2c.22-.32.45-.63.68-.93L59,80c.22-.28.45-.56.69-.83l.23-.27c.31-.35.63-.7,1-1s.68-.65,1-1l.27-.23c.27-.24.55-.47.83-.69l.28-.22c.3-.23.61-.46.93-.68l.2-.14c.39-.26.79-.52,1.2-.76L72.06,86a12,12,0,0,0-1.68,1.37A11.32,11.32,0,0,0,69,89L57.18,82.57C57.42,82.17,57.68,81.77,57.94,81.38Zm2.92,30.74a24.29,24.29,0,0,1-4.54-28l11.84,6.47a10.76,10.76,0,0,0,14.2,14.2l6.47,11.84A24.29,24.29,0,0,1,60.86,112.12Z"/><path d="M75.46,92.44a3.59,3.59,0,1,0,5.08,0A3.67,3.67,0,0,0,75.46,92.44Zm3.81,3.81a1.84,1.84,0,0,1-2.54,0,1.8,1.8,0,1,1,2.54,0Z"/></svg>