<svg id="Capa_1" data-name="Capa 1" xmlns="http://www.w3.org/2000/svg" viewBox="0 0 128 128"><title>consola</title><path d="M121,106.58h0c0-.62,0-1.24,0-1.86a70.29,70.29,0,0,0-2.23-16.24,1.71,1.71,0,0,0-3.31.86,66.18,66.18,0,0,1,2.1,14.53,23,23,0,0,1-6.92,3.11,29.21,29.21,0,0,1-8.09.87l-1.76-6.07a8.65,8.65,0,0,0-3.68-4.88,9.16,9.16,0,0,0,3.37-7.1,8.84,8.84,0,0,0-.1-1.37,10.62,10.62,0,0,0,2.89.4,10.75,10.75,0,0,0,9.91-6.61l.27.71a1.71,1.71,0,1,0,3.2-1.19,69.66,69.66,0,0,0-4.46-9.7l-.85-1.53a8.73,8.73,0,0,0-7.63-4.5h-2a3.69,3.69,0,0,0-2.6,1.08.27.27,0,0,1-.19.08H57.57a.27.27,0,0,1-.19-.08A3.67,3.67,0,0,0,54.78,66h-2a8.74,8.74,0,0,0-7.63,4.5l-.85,1.53a70.42,70.42,0,0,0-8.81,32.71c-.05,1,0,2.1,0,3.14l.06,2.53h-5v-64H44V61.9a1.71,1.71,0,0,0,3.42,0V12A5.49,5.49,0,0,0,42,6.5H16.34A5.49,5.49,0,0,0,10.86,12v99.75L7.18,119a1.74,1.74,0,0,0,.07,1.67,1.72,1.72,0,0,0,1.46.81H45.8a10.3,10.3,0,0,0,9.84-7.38L59,102.74A5.28,5.28,0,0,1,64,99H92.45a5.27,5.27,0,0,1,5,3.78l3.31,11.38a10.31,10.31,0,0,0,9.84,7.38h0a10.25,10.25,0,0,0,10.25-10l.09-3.61c0-.43,0-.86,0-1.29h0v0ZM103.25,70.8a7.32,7.32,0,1,1-7.31,7.32A7.32,7.32,0,0,1,103.25,70.8Zm-32.16-.21H86v3a2.29,2.29,0,0,1-2.28,2.28H73.38a2.29,2.29,0,0,1-2.29-2.28ZM47.36,74.86a7,7,0,0,1,3.35-3,7,7,0,0,1,2.75-.56,7.06,7.06,0,1,1-6.1,3.52ZM14.27,12a2.07,2.07,0,0,1,2.07-2.07H27.16V14.7a1.71,1.71,0,0,0,3.41,0V9.91H42A2.07,2.07,0,0,1,44,12V43H30.57V22.78a1.71,1.71,0,1,0-3.41,0V43H14.27Zm0,34.46H27.16v64H14.27Zm-2.79,71.65,2.14-4.25H35.88a10.25,10.25,0,0,0,2.29,4.25Zm44.2-16.3-1.77,6.07H52.7a1.71,1.71,0,0,0,0,3.41h.22l-.55,1.88a6.87,6.87,0,0,1-6.56,4.93A6.79,6.79,0,0,1,39,111.42l-.09-3.57A25.67,25.67,0,0,0,45,110.3a1.71,1.71,0,0,0,.86-3.31,23.1,23.1,0,0,1-6.93-3.11,66.78,66.78,0,0,1,4.62-22.25,10.47,10.47,0,0,0,9.94,7.21,10.2,10.2,0,0,0,2.61-.33,9.36,9.36,0,0,0-.09,1.3,9.19,9.19,0,0,0,3.37,7.1A8.67,8.67,0,0,0,55.68,101.79Zm9.87-6.25h-.81a5.76,5.76,0,0,1-5.25-4.66,5.44,5.44,0,0,0,8.7-5.95,5.75,5.75,0,0,1-2.64,10.61Zm-4.49-8.75a2,2,0,1,1,2,2A2,2,0,0,1,61.06,86.79Zm23.09,8.75H72.29a9.16,9.16,0,0,0-7.14-14.9,9.33,9.33,0,0,0-1.51.12,10.34,10.34,0,0,0,.28-2.38,10.44,10.44,0,0,0-3.49-7.79h7.25v3a5.7,5.7,0,0,0,5.7,5.69H83.73a5.69,5.69,0,0,0,5.69-5.69v-3h6.2a10.76,10.76,0,0,0-2.76,10.19,9,9,0,0,0-1.56-.14,9.16,9.16,0,0,0-7.15,14.9Zm11.47-8.75a2,2,0,1,1-2-2,2.27,2.27,0,0,1,.69.12,6,6,0,0,1,1,.76A2,2,0,0,1,95.62,86.79ZM91.7,95.54h-.81a5.75,5.75,0,0,1-2.32-10.8,5.43,5.43,0,0,0,8.33,6.37A5.76,5.76,0,0,1,91.7,95.54Zm25.77,15.88a6.79,6.79,0,0,1-6.83,6.67,6.87,6.87,0,0,1-6.56-4.93l-.55-1.88a32.24,32.24,0,0,0,8-1,25.58,25.58,0,0,0,6.08-2.45Z"/></svg>