<svg id="Capa_1" data-name="Capa 1" xmlns="http://www.w3.org/2000/svg" viewBox="0 0 128 128"><title>consola_bateria</title><path d="M104.73,102.37v-7H109V82.6h-4.27v-7a3.7,3.7,0,0,0-3.69-3.7H48.69A3.7,3.7,0,0,0,45,75.63v26.74a3.7,3.7,0,0,0,3.69,3.7H101A3.7,3.7,0,0,0,104.73,102.37Zm2.14-17.64v8.54h-2.14V84.73Zm-58.18,19.2a1.56,1.56,0,0,1-1.56-1.56V75.63a1.56,1.56,0,0,1,1.56-1.56H101a1.56,1.56,0,0,1,1.56,1.56v26.74a1.56,1.56,0,0,1-1.56,1.56Z"/><path d="M90.75,93.27a1.14,1.14,0,0,0,1.08-.65l.34-.83-.65-.53L72.73,79.62V85.8H59a1.14,1.14,0,0,0-1.07.62l-.37.85.67.54L78.07,98.23v-5ZM75.93,94.7,63,87.94H74.87V83.45l12.4,7.68H75.93Z"/><path d="M54.5,118.07l-.2,0a6.79,6.79,0,0,1-6.83-6.67l-3.44-1h-5v-64H52.53V61.9a1.71,1.71,0,0,0,3.42,0V12A5.49,5.49,0,0,0,50.47,6.5H24.84A5.49,5.49,0,0,0,19.36,12v99.75L15.68,119a1.7,1.7,0,0,0,1.53,2.47H54.5ZM22.77,12a2.07,2.07,0,0,1,2.07-2.07H35.66V14.7a1.71,1.71,0,0,0,3.41,0V9.91h11.4A2.07,2.07,0,0,1,52.53,12V43H39.07V22.78a1.71,1.71,0,1,0-3.41,0V43H22.77Zm0,34.46H35.66v64H22.77ZM20,118.09l2.14-4.25H44.38a10.25,10.25,0,0,0,2.29,4.25Z"/></svg>