<svg id="Capa_1" data-name="Capa 1" xmlns="http://www.w3.org/2000/svg" viewBox="0 0 128 128"><title>consola_rom</title><path d="M109,111.6V72.4a2.8,2.8,0,0,0-2.8-2.8H55.8A2.8,2.8,0,0,0,53,72.4v39.2a2.8,2.8,0,0,0,2.8,2.8h50.4A2.8,2.8,0,0,0,109,111.6Zm-53.2.93a.92.92,0,0,1-.93-.93V72.4a.92.92,0,0,1,.93-.93h50.4a.92.92,0,0,1,.93.93v39.2a.92.92,0,0,1-.93.93Z"/><path d="M76.33,103.2A11.22,11.22,0,0,1,65.13,92H63.27a13.08,13.08,0,0,0,13.06,13.07Z"/><path d="M93.13,92a16.8,16.8,0,1,0-16.8,16.8A16.8,16.8,0,0,0,93.13,92ZM61.4,92a14.94,14.94,0,1,1,14.93,14.93A14.93,14.93,0,0,1,61.4,92Z"/><path d="M62.33,76.13a2.8,2.8,0,1,0-2.8,2.8A2.8,2.8,0,0,0,62.33,76.13Zm-3.73,0a.94.94,0,1,1,.93.94A.93.93,0,0,1,58.6,76.13Z"/><path d="M62.33,107.87a2.8,2.8,0,1,0-2.8,2.8A2.8,2.8,0,0,0,62.33,107.87Zm-3.73,0a.94.94,0,1,1,.93.93A.94.94,0,0,1,58.6,107.87Z"/><path d="M99.67,76.13a2.8,2.8,0,1,0,2.8-2.8A2.8,2.8,0,0,0,99.67,76.13Zm3.73,0a.94.94,0,1,1-.93-.93A.94.94,0,0,1,103.4,76.13Z"/><path d="M105.27,107.87a2.8,2.8,0,1,0-2.8,2.8A2.8,2.8,0,0,0,105.27,107.87Zm-3.74,0a.94.94,0,1,1,.94.93A.94.94,0,0,1,101.53,107.87Z"/><path d="M76.33,95.73A3.73,3.73,0,1,0,72.6,92,3.73,3.73,0,0,0,76.33,95.73Zm0-5.6A1.87,1.87,0,1,1,74.47,92,1.87,1.87,0,0,1,76.33,90.13Z"/><path d="M103.4,80.8v22.4h-1.87V80.8Z"/><path d="M99.67,80.8v22.4H97.8V80.8Z"/><path d="M54.5,118.07l-.2,0a6.79,6.79,0,0,1-6.83-6.67l-3.44-1h-5v-64H52.53V61.9a1.71,1.71,0,0,0,3.42,0V12A5.49,5.49,0,0,0,50.47,6.5H24.84A5.49,5.49,0,0,0,19.36,12v99.75L15.68,119a1.7,1.7,0,0,0,1.53,2.47H54.5ZM22.77,12a2.07,2.07,0,0,1,2.07-2.07H35.66V14.7a1.71,1.71,0,0,0,3.41,0V9.91h11.4A2.07,2.07,0,0,1,52.53,12V43H39.07V22.78a1.71,1.71,0,1,0-3.41,0V43H22.77Zm0,34.46H35.66v64H22.77ZM20,118.09l2.14-4.25H44.38a10.25,10.25,0,0,0,2.29,4.25Z"/></svg>