<svg id="Capa_1" data-name="Capa 1" xmlns="http://www.w3.org/2000/svg" viewBox="0 0 128 128"><title>consola_conexion</title><path d="M111.39,77.94A2.62,2.62,0,0,0,114,75.32V66.61A2.61,2.61,0,0,0,111.39,64H99.19a2.61,2.61,0,0,0-2.61,2.61v8.71a2.62,2.62,0,0,0,2.61,2.62h2.62v1.74h-1.75v1.74h4.36v8.71h-3.6a6,6,0,0,0-2.5-1.48v-.26a7,7,0,0,0-12.83-3.75,7,7,0,0,0-9.36,3.89,5.85,5.85,0,0,0-1.83.73H67.84V86.65h3.48A2.63,2.63,0,0,0,73.94,84V66.61A2.62,2.62,0,0,0,71.32,64H62.61A2.61,2.61,0,0,0,60,66.61V84a2.62,2.62,0,0,0,2.61,2.62H66.1V91h6.34a5.84,5.84,0,0,0-.84,1.74H67.84v9.58H64.35a2.62,2.62,0,0,0-2.61,2.62v7.83H60v2.62A2.61,2.61,0,0,0,62.61,118H76.55a2.61,2.61,0,0,0,2.61-2.61v-2.62H77.42v-7.83a2.62,2.62,0,0,0-2.61-2.62H69.58V94.48h1.74a6.11,6.11,0,0,0,6.1,6.1H96.58a6.11,6.11,0,0,0,6-5.23h3.55v7h-6.1V118H114V102.32h-6.1V93.61h-5.3a5.87,5.87,0,0,0-.54-1.74h4.1V81.42h4.36V79.68h-1.75V77.94Zm-39.2,0H61.74V69.23H72.19Zm-9.58-12.2h8.71a.87.87,0,0,1,.87.87v.87H61.74v-.87A.87.87,0,0,1,62.61,65.74ZM61.74,84V79.68H72.19V84a.87.87,0,0,1-.87.87H62.61A.87.87,0,0,1,61.74,84Zm15.68,31.36a.87.87,0,0,1-.87.87H62.61a.87.87,0,0,1-.87-.87v-.87H77.42Zm-1.74-10.45v7.83H63.48v-7.83a.87.87,0,0,1,.87-.88H74.81A.87.87,0,0,1,75.68,104.94Zm26.13,11.32V111h10.45v5.23Zm10.45-7H101.81v-5.23h10.45ZM96.58,98.84H77.42a4.36,4.36,0,0,1-.52-8.68l.57-.06.16-.56a5.21,5.21,0,0,1,7.75-3l.83.52.41-.89a5.22,5.22,0,0,1,10,2.21,4.9,4.9,0,0,1-.07.8l-.13.86.86.13a4.35,4.35,0,0,1-.66,8.66Zm2.61-33.1h12.2a.87.87,0,0,1,.87.87v6.1H98.32v-6.1A.87.87,0,0,1,99.19,65.74Zm-.87,9.58v-.87h13.94v.87a.87.87,0,0,1-.87.87H99.19A.87.87,0,0,1,98.32,75.32ZM107,79.68h-3.48V77.94H107Z"/><path d="M103.55,105.81h1.74v1.74h-1.74Z"/><path d="M108.77,112.77h1.75v1.75h-1.75Z"/><path d="M107,105.81h3.49v1.74H107Z"/><path d="M103.55,112.77H107v1.75h-3.48Z"/><path d="M54.5,118.07l-.2,0a6.79,6.79,0,0,1-6.83-6.67l-3.44-1h-5v-64H52.53V61.9a1.71,1.71,0,0,0,3.42,0V12A5.49,5.49,0,0,0,50.47,6.5H24.84A5.49,5.49,0,0,0,19.36,12v99.75L15.68,119a1.7,1.7,0,0,0,1.53,2.47H54.5ZM22.77,12a2.07,2.07,0,0,1,2.07-2.07H35.66V14.7a1.71,1.71,0,0,0,3.41,0V9.91h11.4A2.07,2.07,0,0,1,52.53,12V43H39.07V22.78a1.71,1.71,0,1,0-3.41,0V43H22.77Zm0,34.46H35.66v64H22.77ZM20,118.09l2.14-4.25H44.38a10.25,10.25,0,0,0,2.29,4.25Z"/></svg>