<svg id="Capa_1" data-name="Capa 1" xmlns="http://www.w3.org/2000/svg" viewBox="0 0 128 128"><title>consola_sistema</title><path d="M61.65,83.38h36.7v2.3H61.65Z"/><path d="M83.44,88H98.35v2.3H83.44Z"/><path d="M61.65,88H76.56v2.3H61.65Z"/><path d="M83.44,78.8H98.35v2.29H83.44Z"/><path d="M61.65,78.8H76.56v2.29H61.65Z"/><path d="M61.65,74.21h36.7V76.5H61.65Z"/><path d="M105.23,80.14V74.21a6.88,6.88,0,0,0-6.88-6.88v2.29a4.6,4.6,0,0,1,4.59,4.59v5.93a8.93,8.93,0,0,0,1.91,5.54,8.88,8.88,0,0,0-1.91,5.54v5.93a4.59,4.59,0,0,1-4.59,4.58V104a6.89,6.89,0,0,0,6.88-6.88V91.22a6.65,6.65,0,0,1,2-4.73l.81-.81-.81-.81A6.67,6.67,0,0,1,105.23,80.14Z"/><path d="M57.06,97.15V91.22a8.88,8.88,0,0,0-1.91-5.54,8.93,8.93,0,0,0,1.91-5.54V74.21a4.6,4.6,0,0,1,4.59-4.59V67.33a6.88,6.88,0,0,0-6.88,6.88v5.93a6.67,6.67,0,0,1-2,4.73l-.81.81.81.81a6.65,6.65,0,0,1,2,4.73v5.93A6.89,6.89,0,0,0,61.65,104v-2.3A4.59,4.59,0,0,1,57.06,97.15Z"/><path d="M80,104a4.59,4.59,0,1,0,4.59,4.59A4.6,4.6,0,0,0,80,104Zm0,6.88a2.3,2.3,0,1,1,2.29-2.29A2.29,2.29,0,0,1,80,110.91Z"/><path d="M80,99.44a9.26,9.26,0,0,0-4.37,1.1l1.1,2a6.88,6.88,0,0,1,9.32,9.33l2,1.09A9.17,9.17,0,0,0,80,99.44Z"/><path d="M80,115.5a6.88,6.88,0,0,1-6-10.16l-2-1.09a9.18,9.18,0,0,0,12.44,12.44l-1.1-2A6.91,6.91,0,0,1,80,115.5Z"/><path d="M96.06,105.43l-2.87-.72a14.66,14.66,0,0,0-1.1-2.65l1.52-2.54L89.1,95l-2.54,1.52a13.35,13.35,0,0,0-2.65-1.1l-.72-2.87H76.81l-.72,2.87a13.6,13.6,0,0,0-2.65,1.1L70.9,95l-4.51,4.51,1.53,2.53a13.69,13.69,0,0,0-1.1,2.66l-2.88.72v6.37l2.87.72a14.66,14.66,0,0,0,1.1,2.65l-1.52,2.54,4.51,4.51,2.54-1.52a13.35,13.35,0,0,0,2.65,1.1l.72,2.87h6.38l.72-2.87a13.6,13.6,0,0,0,2.65-1.1l2.54,1.53,4.51-4.51-1.53-2.54a13.6,13.6,0,0,0,1.1-2.65l2.88-.73ZM93.76,110l-2.46.62-.16.68a11.62,11.62,0,0,1-1.36,3.28l-.37.59,1.31,2.18-2,2L86.57,118l-.6.36a11.22,11.22,0,0,1-3.28,1.36l-.68.17-.61,2.46H78.6L78,119.92l-.68-.17A11,11,0,0,1,74,118.39l-.59-.36-2.18,1.31-2-2,1.31-2.18-.37-.59a11.62,11.62,0,0,1-1.36-3.28l-.16-.68L66.24,110v-2.79l2.46-.62.16-.67a11.56,11.56,0,0,1,1.36-3.29l.37-.59-1.31-2.18,2-2,2.17,1.3.6-.36a11.5,11.5,0,0,1,3.28-1.36l.68-.16.61-2.47h2.8L82,97.31l.68.17A11.22,11.22,0,0,1,86,98.84l.59.36,2.18-1.31,2,2-1.31,2.18.37.59a11.62,11.62,0,0,1,1.36,3.28l.16.68,2.46.62Z"/><path d="M54.5,118.07l-.2,0a6.79,6.79,0,0,1-6.83-6.67l-3.44-1h-5v-64H52.53V61.9a1.71,1.71,0,0,0,3.42,0V12A5.49,5.49,0,0,0,50.47,6.5H24.84A5.49,5.49,0,0,0,19.36,12v99.75L15.68,119a1.7,1.7,0,0,0,1.53,2.47H54.5ZM22.77,12a2.07,2.07,0,0,1,2.07-2.07H35.66V14.7a1.71,1.71,0,0,0,3.41,0V9.91h11.4A2.07,2.07,0,0,1,52.53,12V43H39.07V22.78a1.71,1.71,0,1,0-3.41,0V43H22.77Zm0,34.46H35.66v64H22.77ZM20,118.09l2.14-4.25H44.38a10.25,10.25,0,0,0,2.29,4.25Z"/></svg>