<svg id="Capa_1" data-name="Capa 1" xmlns="http://www.w3.org/2000/svg" viewBox="0 0 128 128"><title>consola_ram</title><path d="M61.73,89.61V84.89a.61.61,0,0,1,.61-.61h40.32a.61.61,0,0,1,.61.61V89.6a.86.86,0,0,0,.86.85.85.85,0,0,0,.85-.85V84.89a2.32,2.32,0,0,0-2.32-2.32H62.34A2.32,2.32,0,0,0,60,84.89v4.72a.85.85,0,0,0,.85.85A.86.86,0,0,0,61.73,89.61Z"/><path d="M105,99.11V94a.85.85,0,0,0-.85-.85.86.86,0,0,0-.86.85v5.16a.61.61,0,0,1-.61.61H62.34a.61.61,0,0,1-.61-.61V94a.86.86,0,0,0-.86-.85A.85.85,0,0,0,60,94v5.15a2.32,2.32,0,0,0,2.32,2.32h40.32A2.32,2.32,0,0,0,105,99.11Z"/><path d="M89.33,114.39a2.54,2.54,0,0,0,2.54,2.54h2.26a2.54,2.54,0,0,0,2.54-2.54V109h3.15v5.44h0a2.54,2.54,0,0,0,2.54,2.54h2.27a2.54,2.54,0,0,0,2.54-2.54V109h2a3.32,3.32,0,0,0,3.31-3.31V78.36a3.32,3.32,0,0,0-3.31-3.31h-2V69.61a2.54,2.54,0,0,0-2.54-2.54h-2.27a2.54,2.54,0,0,0-2.54,2.54v5.44H96.67V69.61a2.54,2.54,0,0,0-2.54-2.54H91.87a2.54,2.54,0,0,0-2.54,2.54v5.44H86.17V69.61a2.54,2.54,0,0,0-2.54-2.54H81.37a2.54,2.54,0,0,0-2.54,2.54v5.44H75.67V69.61a2.54,2.54,0,0,0-2.54-2.54H70.87a2.54,2.54,0,0,0-2.54,2.54v5.44H65.18V69.61a2.54,2.54,0,0,0-2.54-2.54H60.37a2.54,2.54,0,0,0-2.54,2.54v5.44h-2a3.32,3.32,0,0,0-3.31,3.31v27.28A3.32,3.32,0,0,0,55.81,109h2v5.44a2.54,2.54,0,0,0,2.54,2.54h2.27a2.54,2.54,0,0,0,2.54-2.54V109h3.15v5.44a2.54,2.54,0,0,0,2.54,2.54h2.26a2.54,2.54,0,0,0,2.54-2.54V109h3.16v5.44a2.54,2.54,0,0,0,2.54,2.54h2.26a2.54,2.54,0,0,0,2.54-2.54V109h3.16ZM105.46,109v5.44a.83.83,0,0,1-.83.83h-2.27a.83.83,0,0,1-.83-.83V109ZM95,109v5.44a.83.83,0,0,1-.83.83H91.87a.84.84,0,0,1-.84-.83V109ZM59.54,75.05V69.61a.83.83,0,0,1,.83-.83h2.27a.83.83,0,0,1,.83.83v5.44Zm10.5,0V69.61a.83.83,0,0,1,.83-.83h2.26a.84.84,0,0,1,.84.83v5.44Zm10.5,0V69.61a.83.83,0,0,1,.83-.83h2.26a.83.83,0,0,1,.83.83v5.44Zm10.49,0V69.61a.84.84,0,0,1,.84-.83h2.26a.83.83,0,0,1,.83.83v5.44Zm10.5,0V69.61a.83.83,0,0,1,.83-.83h2.27a.83.83,0,0,1,.83.83v5.44ZM55.81,107.24a1.6,1.6,0,0,1-1.6-1.6V78.36a1.6,1.6,0,0,1,1.6-1.6h53.38a1.6,1.6,0,0,1,1.6,1.6v27.28a1.6,1.6,0,0,1-1.6,1.6Zm7.66,7.15a.83.83,0,0,1-.83.83H60.37a.83.83,0,0,1-.83-.83V109h3.93Zm10.5,0a.84.84,0,0,1-.84.83H70.87a.83.83,0,0,1-.83-.83V109H74Zm10.49,0a.83.83,0,0,1-.83.83H81.37a.83.83,0,0,1-.83-.83V109h3.92v5.44Z"/><path d="M76.62,95.74a.45.45,0,0,0,.44.34h.66a.45.45,0,0,0,.43-.59c-.3-.91-.65-2-1-3.2a1.78,1.78,0,0,0,.48-.3,1.76,1.76,0,0,0,.32-.37,2.24,2.24,0,0,0,.17-.44,2.86,2.86,0,0,0,.08-.43c0-.13,0-.28,0-.44a2.35,2.35,0,0,0-.17-1,1.55,1.55,0,0,0-.51-.64,2.14,2.14,0,0,0-.78-.35,4.52,4.52,0,0,0-1-.11H74.42a.45.45,0,0,0-.45.45v6.93a.45.45,0,0,0,.45.45h.68a.45.45,0,0,0,.45-.45V92.47h.26Zm-1.07-4.23v-2.1h.53a.38.38,0,0,1,.28.12.63.63,0,0,1,.16.29,2.46,2.46,0,0,1,.07.33,2.83,2.83,0,0,1,0,.29c0,.09,0,.19,0,.29a3,3,0,0,1-.09.35.67.67,0,0,1-.19.3.4.4,0,0,1-.31.13Z"/><path d="M82.2,95.78a.38.38,0,0,0,.36.3h.81a.38.38,0,0,0,.36-.45L82.2,88.54a.37.37,0,0,0-.36-.29H81a.37.37,0,0,0-.36.29l-1.53,7.09a.37.37,0,0,0,.36.45h.81a.37.37,0,0,0,.36-.31l.25-1.37h1ZM81,93.43l.41-2.91.39,2.91Z"/><path d="M86.12,95.81l0-5.27.93,5.31a.27.27,0,0,0,.26.23h.72a.27.27,0,0,0,.27-.23c.09-.57.23-1.42.42-2.53.22-1.27.37-2.18.46-2.75l0,5.24a.28.28,0,0,0,.28.27h.62a.28.28,0,0,0,.27-.28V88.52a.27.27,0,0,0-.27-.27H88.81a.28.28,0,0,0-.27.23l-.86,5-.8-5a.27.27,0,0,0-.27-.23H85.22a.27.27,0,0,0-.27.27V95.8a.28.28,0,0,0,.27.28h.63A.27.27,0,0,0,86.12,95.81Z"/><path d="M54.5,118.07l-.2,0a6.79,6.79,0,0,1-6.83-6.67l-3.44-1h-5v-64H52.53V61.9a1.71,1.71,0,0,0,3.42,0V12A5.49,5.49,0,0,0,50.47,6.5H24.84A5.49,5.49,0,0,0,19.36,12v99.75L15.68,119a1.7,1.7,0,0,0,1.53,2.47H54.5ZM22.77,12a2.07,2.07,0,0,1,2.07-2.07H35.66V14.7a1.71,1.71,0,0,0,3.41,0V9.91h11.4A2.07,2.07,0,0,1,52.53,12V43H39.07V22.78a1.71,1.71,0,1,0-3.41,0V43H22.77Zm0,34.46H35.66v64H22.77ZM20,118.09l2.14-4.25H44.38a10.25,10.25,0,0,0,2.29,4.25Z"/></svg>