<svg id="Capa_1" data-name="Capa 1" xmlns="http://www.w3.org/2000/svg" viewBox="0 0 128 128"><title>dual</title><path d="M55.87,13.17H64A2,2,0,0,0,64,9.1H55.87a2,2,0,1,0,0,4.07Z"/><path d="M70.1,13.17h2a2,2,0,1,0,0-4.07h-2a2,2,0,0,0,0,4.07Z"/><path d="M89.61,3H38.39a9,9,0,0,0-9,9V116a9,9,0,0,0,9,9H89.61a9,9,0,0,0,9-9V12A9,9,0,0,0,89.61,3ZM94.5,116a4.89,4.89,0,0,1-4.89,4.89H38.39A4.89,4.89,0,0,1,33.5,116V19.27h61Zm0-100.84h-61V12a4.89,4.89,0,0,1,4.89-4.89H89.61A4.89,4.89,0,0,1,94.5,12Z"/><path d="M85.08,49.11a6.81,6.81,0,0,0-8.63-10.42L70,32.89a.93.93,0,0,0-.61-.23H44.86A3.86,3.86,0,0,0,41,36.52v4a.92.92,0,0,0,1.84,0v-4a2,2,0,0,1,2-2H69l6,5.41a6.79,6.79,0,0,0,3.23,11V82.65a2,2,0,0,1-2,2H44.86a2,2,0,0,1-2-2V44.9a.92.92,0,1,0-1.84,0V82.65a3.86,3.86,0,0,0,3.86,3.86h3v5a3.86,3.86,0,0,0,3.86,3.86H83.14A3.86,3.86,0,0,0,87,91.48V51.24a.92.92,0,0,0-.3-.68Zm-9.86-4.74a5,5,0,1,1,5,5A5,5,0,0,1,75.22,44.37Zm9.94,47.11a2,2,0,0,1-2,2H51.73a2,2,0,0,1-2-2v-5H76.27a3.86,3.86,0,0,0,3.86-3.86V51.18h.06a6.83,6.83,0,0,0,3.42-.92l1.55,1.39Z"/><path d="M69.4,77.68a3.87,3.87,0,0,0,3.86-3.87V60.07a3.86,3.86,0,0,0-3.86-3.86H51.73a3.86,3.86,0,0,0-3.86,3.86V73.81a3.87,3.87,0,0,0,3.86,3.87ZM49.71,63H71.42v8H49.71Zm11.78-1.84V58.05h4v3.07Zm-1.84,0h-4V58.05h4Zm5.88,11.65v3s0,0,0,.06H61.49V72.77Zm3.87,3.07h-2V72.77h4v1A2,2,0,0,1,69.4,75.84Zm2-15.77v1h-4V58.05h2A2,2,0,0,1,71.42,60.07Zm-19.69-2h2v3.07h-4v-1A2,2,0,0,1,51.73,58.05Zm-2,15.76v-1h9.94v3.07H51.73A2,2,0,0,1,49.71,73.81Z"/><path d="M83.79,41.76a.92.92,0,0,0-1.3,0L79.21,45,77.9,43.72A.92.92,0,0,0,76.6,45l2,2a.94.94,0,0,0,1.3,0l3.93-3.93A.92.92,0,0,0,83.79,41.76Z"/></svg>