<svg id="Capa_1" data-name="Capa 1" xmlns="http://www.w3.org/2000/svg" viewBox="0 0 128 128"><title>pantalla</title><path d="M55.87,13.17H64A2,2,0,0,0,64,9.1H55.87a2,2,0,1,0,0,4.07Z"/><path d="M70.1,13.17h2a2,2,0,1,0,0-4.07h-2a2,2,0,0,0,0,4.07Z"/><path d="M89.61,3H38.39a9,9,0,0,0-9,9V116a9,9,0,0,0,9,9H89.61a9,9,0,0,0,9-9V12A9,9,0,0,0,89.61,3ZM94.5,116a4.89,4.89,0,0,1-4.89,4.89H38.39A4.89,4.89,0,0,1,33.5,116V19.27h61Zm0-100.84h-61V12a4.89,4.89,0,0,1,4.89-4.89H89.61A4.89,4.89,0,0,1,94.5,12Z"/><path d="M48.61,26.57a1.74,1.74,0,0,0-2.46,0L41.8,30.91a1.74,1.74,0,0,0,1.23,3,1.73,1.73,0,0,0,1.23-.51L48.61,29A1.74,1.74,0,0,0,48.61,26.57Z"/><path d="M55.56,26.57a1.74,1.74,0,0,0-2.46,0l-9.56,9.55A1.74,1.74,0,1,0,46,38.58L55.56,29A1.73,1.73,0,0,0,55.56,26.57Z"/></svg>