<svg id="Capa_1" data-name="Capa 1" xmlns="http://www.w3.org/2000/svg" viewBox="0 0 128 128"><title>pc</title><path d="M33.11,37a2.58,2.58,0,0,0-3.64,0L23.05,43.4A2.57,2.57,0,1,0,26.68,47l6.43-6.42A2.58,2.58,0,0,0,33.11,37Z"/><path d="M43.39,37a2.58,2.58,0,0,0-3.64,0L25.62,51.11a2.57,2.57,0,1,0,3.63,3.63L43.39,40.61A2.58,2.58,0,0,0,43.39,37Z"/><path d="M14.69,95.79h98.62a3.7,3.7,0,0,0,3.69-3.7V28.7a3.7,3.7,0,0,0-3.69-3.7H14.69A3.7,3.7,0,0,0,11,28.7V92.09A3.7,3.7,0,0,0,14.69,95.79ZM14.16,28.7a.53.53,0,0,1,.53-.53h98.62a.53.53,0,0,1,.53.53V92.09a.53.53,0,0,1-.53.53H14.69a.53.53,0,0,1-.53-.53ZM125,98.62v3a1.43,1.43,0,0,1-1.42,1.42H4.46A1.43,1.43,0,0,1,3,101.58v-3H53.11A2,2,0,0,0,55,100.05H73a2,2,0,0,0,1.91-1.43Z"/></svg>