<svg id="Capa_1" data-name="Capa 1" xmlns="http://www.w3.org/2000/svg" viewBox="0 0 128 128"><title>pc_bateria</title><path d="M91.73,74.37v-7H96V54.6H91.73v-7A3.7,3.7,0,0,0,88,43.93H35.69A3.7,3.7,0,0,0,32,47.63V74.37a3.7,3.7,0,0,0,3.69,3.7H88A3.7,3.7,0,0,0,91.73,74.37Zm2.14-17.64v8.54H91.73V56.73ZM35.69,75.93a1.56,1.56,0,0,1-1.56-1.56V47.63a1.56,1.56,0,0,1,1.56-1.56H88a1.56,1.56,0,0,1,1.56,1.56V74.37A1.56,1.56,0,0,1,88,75.93Z"/><path d="M77.75,65.27a1.14,1.14,0,0,0,1.08-.65l.34-.83-.65-.53L59.73,51.62V57.8H46a1.14,1.14,0,0,0-1.07.62l-.37.85.67.54L65.07,70.23v-5ZM62.93,66.7,50,59.94H61.87V55.45l12.4,7.68H62.93Z"/><path d="M14.69,95.79h98.62a3.7,3.7,0,0,0,3.69-3.7V28.7a3.7,3.7,0,0,0-3.69-3.7H14.69A3.7,3.7,0,0,0,11,28.7V92.09A3.7,3.7,0,0,0,14.69,95.79ZM14.16,28.7a.53.53,0,0,1,.53-.53h98.62a.53.53,0,0,1,.53.53V92.09a.53.53,0,0,1-.53.53H14.69a.53.53,0,0,1-.53-.53ZM125,98.62v3a1.43,1.43,0,0,1-1.42,1.42H4.46A1.43,1.43,0,0,1,3,101.58v-3H53.11A2,2,0,0,0,55,100.05H73a2,2,0,0,0,1.91-1.43Z"/></svg>