<svg id="Capa_1" data-name="Capa 1" xmlns="http://www.w3.org/2000/svg" viewBox="0 0 128 128"><title>pc_censores</title><path d="M86.5,34h-45A4.51,4.51,0,0,0,37,38.5v45A4.51,4.51,0,0,0,41.5,88h45A4.51,4.51,0,0,0,91,83.5v-45A4.51,4.51,0,0,0,86.5,34ZM71,35.8l-.45,1.8h-13l-.45-1.8ZM38.8,54.05l1.8.45v13L38.8,68ZM57.05,86.2l.45-1.8h13L71,86.2Zm29.45,0H72.8l-.73-2.92a.9.9,0,0,0-.87-.68H56.8a.9.9,0,0,0-.87.68L55.2,86.2H41.5a2.7,2.7,0,0,1-2.7-2.7V69.8l2.92-.73a.9.9,0,0,0,.68-.87V53.8a.9.9,0,0,0-.68-.87L38.8,52.2V38.5a2.7,2.7,0,0,1,2.7-2.7H55.2l.73,2.92a.9.9,0,0,0,.87.68H71.2a.9.9,0,0,0,.87-.68l.73-2.92H86.5a2.7,2.7,0,0,1,2.7,2.7V52.2l-2.92.73a.9.9,0,0,0-.68.87V68.2a.9.9,0,0,0,.68.87l2.92.73V83.5A2.7,2.7,0,0,1,86.5,86.2ZM89.2,68l-1.8-.45v-13l1.8-.45Z"/><path d="M82,41.2H46A1.81,1.81,0,0,0,44.2,43V79A1.81,1.81,0,0,0,46,80.8H82A1.81,1.81,0,0,0,83.8,79V43A1.81,1.81,0,0,0,82,41.2ZM46,79V43H82V79Z"/><path d="M14.69,95.79h98.62a3.7,3.7,0,0,0,3.69-3.7V28.7a3.7,3.7,0,0,0-3.69-3.7H14.69A3.7,3.7,0,0,0,11,28.7V92.09A3.7,3.7,0,0,0,14.69,95.79ZM14.16,28.7a.53.53,0,0,1,.53-.53h98.62a.53.53,0,0,1,.53.53V92.09a.53.53,0,0,1-.53.53H14.69a.53.53,0,0,1-.53-.53ZM125,98.62v3a1.43,1.43,0,0,1-1.42,1.42H4.46A1.43,1.43,0,0,1,3,101.58v-3H53.11A2,2,0,0,0,55,100.05H73a2,2,0,0,0,1.91-1.43Z"/></svg>