<svg id="Capa_1" data-name="Capa 1" xmlns="http://www.w3.org/2000/svg" viewBox="0 0 128 128"><title>pc_cable</title><path d="M91.53,48.63V46a3.17,3.17,0,0,0-3.17-3.16H83A3.17,3.17,0,0,0,79.84,46v2.68h-1V61.29h2.92v2.92h2.92v2.58a17.92,17.92,0,0,1-11,16.76,15.57,15.57,0,1,0-23.41-3,17.91,17.91,0,0,1-5.51-12.92V56.42h2.92V53.5h2.92V40.84h-1V38.16A3.17,3.17,0,0,0,46.5,35H41.14A3.17,3.17,0,0,0,38,38.16v2.68H37V53.5h2.92v2.92h2.92V68.61h0a20,20,0,0,0,19.9,19h.53l.32,0c13.61-.33,23-8.78,23-20.77V64.21h2.92V61.29H92.5V48.63ZM39.92,38.16A1.22,1.22,0,0,1,41.14,37H46.5a1.21,1.21,0,0,1,1.21,1.21v2.68H39.92ZM39,51.55V42.79h9.73v8.76H39Zm2.92,2.92v-1h3.89v1ZM49.66,72a13.63,13.63,0,0,1,27.26,0,13.46,13.46,0,0,1-1.32,5.81A12.5,12.5,0,0,0,76,74.92a12.66,12.66,0,0,0-25.32,0A12.5,12.5,0,0,0,51,77.81,13.46,13.46,0,0,1,49.66,72Zm14,13.62h-.48a10.62,10.62,0,1,1,.48,0ZM81.79,46A1.21,1.21,0,0,1,83,44.74h5.36A1.22,1.22,0,0,1,89.58,46v2.68H81.79Zm5.84,16.31H83.74v-1h3.89Zm2.92-2.92H80.82V50.58h9.73Z"/><path d="M14.69,95.79h98.62a3.7,3.7,0,0,0,3.69-3.7V28.7a3.7,3.7,0,0,0-3.69-3.7H14.69A3.7,3.7,0,0,0,11,28.7V92.09A3.7,3.7,0,0,0,14.69,95.79ZM14.16,28.7a.53.53,0,0,1,.53-.53h98.62a.53.53,0,0,1,.53.53V92.09a.53.53,0,0,1-.53.53H14.69a.53.53,0,0,1-.53-.53ZM125,98.62v3a1.43,1.43,0,0,1-1.42,1.42H4.46A1.43,1.43,0,0,1,3,101.58v-3H53.11A2,2,0,0,0,55,100.05H73a2,2,0,0,0,1.91-1.43Z"/></svg>