<svg id="Capa_1" data-name="Capa 1" xmlns="http://www.w3.org/2000/svg" viewBox="0 0 128 128"><title>pc_conexion</title><path d="M88.39,47.94A2.62,2.62,0,0,0,91,45.32V36.61A2.61,2.61,0,0,0,88.39,34H76.19a2.61,2.61,0,0,0-2.61,2.61v8.71a2.62,2.62,0,0,0,2.61,2.62h2.62v1.74H77.06v1.74h4.36v8.71h-3.6a6,6,0,0,0-2.5-1.48v-.26a7,7,0,0,0-12.83-3.75,7,7,0,0,0-9.36,3.89,5.85,5.85,0,0,0-1.83.73H44.84V56.65h3.48A2.63,2.63,0,0,0,50.94,54V36.61A2.62,2.62,0,0,0,48.32,34H39.61A2.61,2.61,0,0,0,37,36.61V54a2.62,2.62,0,0,0,2.61,2.62H43.1V61h6.34a5.84,5.84,0,0,0-.84,1.74H44.84v9.58H41.35a2.62,2.62,0,0,0-2.61,2.62v7.83H37v2.62A2.61,2.61,0,0,0,39.61,88H53.55a2.61,2.61,0,0,0,2.61-2.61V82.77H54.42V74.94a2.62,2.62,0,0,0-2.61-2.62H46.58V64.48h1.74a6.11,6.11,0,0,0,6.1,6.1H73.58a6.11,6.11,0,0,0,6-5.23h3.55v7h-6.1V88H91V72.32H84.9V63.61H79.6a5.87,5.87,0,0,0-.54-1.74h4.1V51.42h4.36V49.68H85.77V47.94Zm-39.2,0H38.74V39.23H49.19Zm-9.58-12.2h8.71a.87.87,0,0,1,.87.87v.87H38.74v-.87A.87.87,0,0,1,39.61,35.74ZM38.74,54V49.68H49.19V54a.87.87,0,0,1-.87.87H39.61A.87.87,0,0,1,38.74,54ZM54.42,85.39a.87.87,0,0,1-.87.87H39.61a.87.87,0,0,1-.87-.87v-.87H54.42ZM52.68,74.94v7.83H40.48V74.94a.87.87,0,0,1,.87-.88H51.81A.87.87,0,0,1,52.68,74.94ZM78.81,86.26V81H89.26v5.23Zm10.45-7H78.81V74.06H89.26ZM73.58,68.84H54.42a4.36,4.36,0,0,1-.52-8.68l.57-.06.16-.56a5.21,5.21,0,0,1,7.75-3l.83.52.41-.89a5.22,5.22,0,0,1,10,2.21,4.9,4.9,0,0,1-.07.8l-.13.86.86.13a4.35,4.35,0,0,1-.66,8.66Zm2.61-33.1h12.2a.87.87,0,0,1,.87.87v6.1H75.32v-6.1A.87.87,0,0,1,76.19,35.74Zm-.87,9.58v-.87H89.26v.87a.87.87,0,0,1-.87.87H76.19A.87.87,0,0,1,75.32,45.32ZM84,49.68H80.55V47.94H84Z"/><path d="M80.55,75.81h1.74v1.74H80.55Z"/><path d="M85.77,82.77h1.75v1.75H85.77Z"/><path d="M84,75.81h3.49v1.74H84Z"/><path d="M80.55,82.77H84v1.75H80.55Z"/><path d="M14.69,95.79h98.62a3.7,3.7,0,0,0,3.69-3.7V28.7a3.7,3.7,0,0,0-3.69-3.7H14.69A3.7,3.7,0,0,0,11,28.7V92.09A3.7,3.7,0,0,0,14.69,95.79ZM14.16,28.7a.53.53,0,0,1,.53-.53h98.62a.53.53,0,0,1,.53.53V92.09a.53.53,0,0,1-.53.53H14.69a.53.53,0,0,1-.53-.53ZM125,98.62v3a1.43,1.43,0,0,1-1.42,1.42H4.46A1.43,1.43,0,0,1,3,101.58v-3H53.11A2,2,0,0,0,55,100.05H73a2,2,0,0,0,1.91-1.43Z"/></svg>