<svg id="Capa_1" data-name="Capa 1" xmlns="http://www.w3.org/2000/svg" viewBox="0 0 128 128"><title>pc_gpu</title><path d="M14.69,95.79h98.62a3.7,3.7,0,0,0,3.69-3.7V28.7a3.7,3.7,0,0,0-3.69-3.7H14.69A3.7,3.7,0,0,0,11,28.7V92.09A3.7,3.7,0,0,0,14.69,95.79ZM14.16,28.7a.53.53,0,0,1,.53-.53h98.62a.53.53,0,0,1,.53.53V92.09a.53.53,0,0,1-.53.53H14.69a.53.53,0,0,1-.53-.53ZM125,98.62v3a1.43,1.43,0,0,1-1.42,1.42H4.46A1.43,1.43,0,0,1,3,101.58v-3H53.11A2,2,0,0,0,55,100.05H73a2,2,0,0,0,1.91-1.43Z"/><g id="surface1"><path d="M89.2,40.93H42.53V36.27a.93.93,0,0,0-.93-.94H36V37.2h4.67v6.53h-2.8a.94.94,0,0,0-.94.94v7.46a.94.94,0,0,0,.94.94h2.8V54h-2.8a.94.94,0,0,0-.94.93V62.4a.93.93,0,0,0,.94.93h2.8V86.67h1.86V76.4H89.2A2.8,2.8,0,0,0,92,73.6V43.73A2.8,2.8,0,0,0,89.2,40.93ZM38.8,51.2V45.6h1.87v5.6Zm0,10.27v-5.6h1.87v5.6ZM90.13,73.6a.92.92,0,0,1-.93.93H42.53V42.8H89.2a.93.93,0,0,1,.93.93Z"/><path d="M87.33,49.33H64.93a.94.94,0,0,0-.93.94v16.8a.93.93,0,0,0,.93.93h22.4a.94.94,0,0,0,.94-.93V50.27A.94.94,0,0,0,87.33,49.33Zm-.93,16.8H65.87V51.2H86.4Z"/><path d="M69.6,64.27h2.8v-5.6a.94.94,0,0,0-.93-.94H69.6V59.6h.93v2.8H69.6a.93.93,0,0,1-.93-.93v-5.6a.93.93,0,0,1,.93-.94h2.8V53.07H69.6a2.8,2.8,0,0,0-2.8,2.8v5.6A2.8,2.8,0,0,0,69.6,64.27Z"/><path d="M82.67,64.27a2.81,2.81,0,0,0,2.8-2.8v-8.4H83.6v8.4a.94.94,0,0,1-1.87,0v-8.4H79.87v8.4A2.8,2.8,0,0,0,82.67,64.27Z"/><path d="M75.2,59.6H78a.93.93,0,0,0,.93-.93V54a.92.92,0,0,0-.93-.93H74.27a.93.93,0,0,0-.94.93V64.27H75.2Zm0-4.67h1.87v2.8H75.2Z"/><path d="M54.67,44.67H45.33a.93.93,0,0,0-.93.93v5.6a.93.93,0,0,0,.93.93h9.34a.93.93,0,0,0,.93-.93V45.6A.93.93,0,0,0,54.67,44.67Zm-.94,5.6H46.27V46.53h7.46Z"/><path d="M54.67,54.93H45.33a.94.94,0,0,0-.93.94v5.6a.93.93,0,0,0,.93.93h9.34a.93.93,0,0,0,.93-.93v-5.6A.94.94,0,0,0,54.67,54.93Zm-.94,5.6H46.27V56.8h7.46Z"/><path d="M54.67,65.2H45.33a.93.93,0,0,0-.93.93v5.6a.94.94,0,0,0,.93.94h9.34a.94.94,0,0,0,.93-.94v-5.6A.93.93,0,0,0,54.67,65.2Zm-.94,5.6H46.27V67.07h7.46Z"/><path d="M56.53,45.6H58.4v3.73H56.53Z"/><path d="M56.53,51.2H58.4v3.73H56.53Z"/><path d="M56.53,56.8H58.4v3.73H56.53Z"/><path d="M56.53,62.4H58.4v3.73H56.53Z"/><path d="M56.53,68H58.4v3.73H56.53Z"/><path d="M48.13,47.47h3.74v1.86H48.13Z"/><path d="M48.13,57.73h3.74V59.6H48.13Z"/><path d="M48.13,68h3.74v1.87H48.13Z"/><path d="M59.33,44.67H61.2v1.86H59.33Z"/><path d="M59.33,48.4H61.2v1.87H59.33Z"/><path d="M59.33,52.13H61.2V54H59.33Z"/><path d="M59.33,55.87H61.2v1.86H59.33Z"/><path d="M59.33,59.6H61.2v1.87H59.33Z"/><path d="M59.33,63.33H61.2V65.2H59.33Z"/><path d="M59.33,67.07H61.2v1.86H59.33Z"/><path d="M59.33,70.8H61.2v1.87H59.33Z"/></g></svg>