<svg id="Capa_1" data-name="Capa 1" xmlns="http://www.w3.org/2000/svg" viewBox="0 0 128 128"><title>pc_procesador</title><g id="surface1"><path d="M81.5,40.74V36H79.83v4.23a5.69,5.69,0,0,0-.83-.06H77.33V36H75.67v4.17h-2.5V36H71.5v4.17H69V36H67.33v4.17h-2.5V36H63.17v4.17h-2.5V36H59v4.17H56.5V36H54.83v4.17h-2.5V36H50.67v4.17H49a5.69,5.69,0,0,0-.83.06V36H46.5v4.74a5.87,5.87,0,0,0-2.76,2.76H39v1.67h4.23a5.69,5.69,0,0,0-.06.83v1.67H39v1.66h4.17v2.5H39V53.5h4.17V56H39v1.67h4.17v2.5H39v1.66h4.17v2.5H39V66h4.17v2.5H39v1.67h4.17v2.5H39v1.66h4.17V76a5.69,5.69,0,0,0,.06.83H39V78.5h4.74a5.87,5.87,0,0,0,2.76,2.76V86h1.67V81.77a5.69,5.69,0,0,0,.83.06h1.67V86h1.66V81.83h2.5V86H56.5V81.83H59V86h1.67V81.83h2.5V86h1.66V81.83h2.5V86H69V81.83h2.5V86h1.67V81.83h2.5V86h1.66V81.83H79a5.69,5.69,0,0,0,.83-.06V86H81.5V81.26a5.87,5.87,0,0,0,2.76-2.76H89V76.83H84.77a5.69,5.69,0,0,0,.06-.83V74.33H89V72.67H84.83v-2.5H89V68.5H84.83V66H89V64.33H84.83v-2.5H89V60.17H84.83v-2.5H89V56H84.83V53.5H89V51.83H84.83v-2.5H89V47.67H84.83V46a5.69,5.69,0,0,0-.06-.83H89V43.5H84.26A5.87,5.87,0,0,0,81.5,40.74ZM83.17,76A4.19,4.19,0,0,1,79,80.17H49A4.19,4.19,0,0,1,44.83,76V46A4.19,4.19,0,0,1,49,41.83H79A4.19,4.19,0,0,1,83.17,46Z"/><path d="M78.17,44.33H49.83a2.5,2.5,0,0,0-2.5,2.5V75.17a2.5,2.5,0,0,0,2.5,2.5H78.17a2.5,2.5,0,0,0,2.5-2.5V46.83A2.5,2.5,0,0,0,78.17,44.33ZM79,75.17a.83.83,0,0,1-.83.83H49.83a.83.83,0,0,1-.83-.83V46.83a.83.83,0,0,1,.83-.83H78.17a.83.83,0,0,1,.83.83Z"/><path d="M75.67,47.67h1.66v1.66H75.67Z"/><path d="M50.67,72.67h1.66v1.66H50.67Z"/><path d="M50.67,49.33v2.5h1.66v-2.5h2.5V47.67h-2.5A1.66,1.66,0,0,0,50.67,49.33Z"/><path d="M75.67,72.67h-2.5v1.66h4.16V70.17H75.67Z"/></g><path d="M14.69,95.79h98.62a3.7,3.7,0,0,0,3.69-3.7V28.7a3.7,3.7,0,0,0-3.69-3.7H14.69A3.7,3.7,0,0,0,11,28.7V92.09A3.7,3.7,0,0,0,14.69,95.79ZM14.16,28.7a.53.53,0,0,1,.53-.53h98.62a.53.53,0,0,1,.53.53V92.09a.53.53,0,0,1-.53.53H14.69a.53.53,0,0,1-.53-.53ZM125,98.62v3a1.43,1.43,0,0,1-1.42,1.42H4.46A1.43,1.43,0,0,1,3,101.58v-3H53.11A2,2,0,0,0,55,100.05H73a2,2,0,0,0,1.91-1.43Z"/></svg>