<svg id="Capa_1" data-name="Capa 1" xmlns="http://www.w3.org/2000/svg" viewBox="0 0 128 128"><title>pc_ram</title><path d="M43.23,59.61V54.89a.61.61,0,0,1,.61-.61H84.16a.61.61,0,0,1,.61.61V59.6a.86.86,0,0,0,.86.85.85.85,0,0,0,.85-.85V54.89a2.32,2.32,0,0,0-2.32-2.32H43.84a2.32,2.32,0,0,0-2.32,2.32v4.72a.85.85,0,0,0,.85.85A.86.86,0,0,0,43.23,59.61Z"/><path d="M86.48,69.11V64a.85.85,0,0,0-.85-.85.86.86,0,0,0-.86.85v5.16a.61.61,0,0,1-.61.61H43.84a.61.61,0,0,1-.61-.61V64a.86.86,0,0,0-.86-.85.85.85,0,0,0-.85.85v5.15a2.32,2.32,0,0,0,2.32,2.32H84.16A2.32,2.32,0,0,0,86.48,69.11Z"/><path d="M70.83,84.39a2.54,2.54,0,0,0,2.54,2.54h2.26a2.54,2.54,0,0,0,2.54-2.54V79h3.15v5.44h0a2.54,2.54,0,0,0,2.54,2.54h2.27a2.54,2.54,0,0,0,2.54-2.54V79h2A3.32,3.32,0,0,0,94,75.64V48.36a3.32,3.32,0,0,0-3.31-3.31h-2V39.61a2.54,2.54,0,0,0-2.54-2.54H83.86a2.54,2.54,0,0,0-2.54,2.54v5.44H78.17V39.61a2.54,2.54,0,0,0-2.54-2.54H73.37a2.54,2.54,0,0,0-2.54,2.54v5.44H67.67V39.61a2.54,2.54,0,0,0-2.54-2.54H62.87a2.54,2.54,0,0,0-2.54,2.54v5.44H57.17V39.61a2.54,2.54,0,0,0-2.54-2.54H52.37a2.54,2.54,0,0,0-2.54,2.54v5.44H46.68V39.61a2.54,2.54,0,0,0-2.54-2.54H41.87a2.54,2.54,0,0,0-2.54,2.54v5.44h-2A3.32,3.32,0,0,0,34,48.36V75.64A3.32,3.32,0,0,0,37.31,79h2v5.44a2.54,2.54,0,0,0,2.54,2.54h2.27a2.54,2.54,0,0,0,2.54-2.54V79h3.15v5.44a2.54,2.54,0,0,0,2.54,2.54h2.26a2.54,2.54,0,0,0,2.54-2.54V79h3.16v5.44a2.54,2.54,0,0,0,2.54,2.54h2.26a2.54,2.54,0,0,0,2.54-2.54V79h3.16ZM87,79v5.44a.83.83,0,0,1-.83.83H83.86a.83.83,0,0,1-.83-.83V79Zm-10.5,0v5.44a.83.83,0,0,1-.83.83H73.37a.84.84,0,0,1-.84-.83V79ZM41,45.05V39.61a.83.83,0,0,1,.83-.83h2.27a.83.83,0,0,1,.83.83v5.44Zm10.5,0V39.61a.83.83,0,0,1,.83-.83h2.26a.84.84,0,0,1,.84.83v5.44Zm10.5,0V39.61a.83.83,0,0,1,.83-.83h2.26a.83.83,0,0,1,.83.83v5.44Zm10.49,0V39.61a.84.84,0,0,1,.84-.83h2.26a.83.83,0,0,1,.83.83v5.44Zm10.5,0V39.61a.83.83,0,0,1,.83-.83h2.27a.83.83,0,0,1,.83.83v5.44ZM37.31,77.24a1.6,1.6,0,0,1-1.6-1.6V48.36a1.6,1.6,0,0,1,1.6-1.6H90.69a1.6,1.6,0,0,1,1.6,1.6V75.64a1.6,1.6,0,0,1-1.6,1.6ZM45,84.39a.83.83,0,0,1-.83.83H41.87a.83.83,0,0,1-.83-.83V79H45Zm10.5,0a.84.84,0,0,1-.84.83H52.37a.83.83,0,0,1-.83-.83V79h3.93Zm10.49,0a.83.83,0,0,1-.83.83H62.87a.83.83,0,0,1-.83-.83V79H66v5.44Z"/><path d="M58.12,65.74a.45.45,0,0,0,.44.34h.66a.45.45,0,0,0,.43-.59c-.3-.92-.65-2-1-3.2a1.78,1.78,0,0,0,.48-.3,1.76,1.76,0,0,0,.32-.37,2.24,2.24,0,0,0,.17-.44,2.86,2.86,0,0,0,.08-.43c0-.13,0-.28,0-.44a2.35,2.35,0,0,0-.17-1,1.55,1.55,0,0,0-.51-.64,2.14,2.14,0,0,0-.78-.35,4.52,4.52,0,0,0-1-.11H55.92a.45.45,0,0,0-.45.45v6.93a.45.45,0,0,0,.45.45h.68a.45.45,0,0,0,.45-.45V62.47h.26Zm-1.07-4.23v-2.1h.53a.38.38,0,0,1,.28.12.63.63,0,0,1,.16.29,2.46,2.46,0,0,1,.07.33,2.83,2.83,0,0,1,0,.29c0,.09,0,.19,0,.29a3,3,0,0,1-.09.35.67.67,0,0,1-.19.3.4.4,0,0,1-.31.13Z"/><path d="M63.7,65.78a.38.38,0,0,0,.36.3h.81a.38.38,0,0,0,.36-.45L63.7,58.54a.37.37,0,0,0-.36-.29h-.81a.37.37,0,0,0-.36.29l-1.53,7.09a.37.37,0,0,0,.36.45h.81a.37.37,0,0,0,.36-.31l.25-1.37h1Zm-1.17-2.35.41-2.91.39,2.91Z"/><path d="M67.62,65.81l0-5.27.93,5.31a.27.27,0,0,0,.26.23h.72a.27.27,0,0,0,.27-.23c.09-.57.23-1.42.42-2.53.22-1.27.37-2.18.46-2.75l0,5.24a.28.28,0,0,0,.28.27h.62a.28.28,0,0,0,.27-.28V58.52a.27.27,0,0,0-.27-.27H70.31a.28.28,0,0,0-.27.23l-.86,5-.8-5a.27.27,0,0,0-.27-.23H66.72a.27.27,0,0,0-.27.27V65.8a.28.28,0,0,0,.27.28h.63A.27.27,0,0,0,67.62,65.81Z"/><path d="M14.69,95.79h98.62a3.7,3.7,0,0,0,3.69-3.7V28.7a3.7,3.7,0,0,0-3.69-3.7H14.69A3.7,3.7,0,0,0,11,28.7V92.09A3.7,3.7,0,0,0,14.69,95.79ZM14.16,28.7a.53.53,0,0,1,.53-.53h98.62a.53.53,0,0,1,.53.53V92.09a.53.53,0,0,1-.53.53H14.69a.53.53,0,0,1-.53-.53ZM125,98.62v3a1.43,1.43,0,0,1-1.42,1.42H4.46A1.43,1.43,0,0,1,3,101.58v-3H53.11A2,2,0,0,0,55,100.05H73a2,2,0,0,0,1.91-1.43Z"/></svg>