<svg id="Capa_1" data-name="Capa 1" xmlns="http://www.w3.org/2000/svg" viewBox="0 0 128 128"><title>pc_rom</title><path d="M92,80.6V41.4a2.8,2.8,0,0,0-2.8-2.8H38.8A2.8,2.8,0,0,0,36,41.4V80.6a2.8,2.8,0,0,0,2.8,2.8H89.2A2.8,2.8,0,0,0,92,80.6Zm-53.2.93a.92.92,0,0,1-.93-.93V41.4a.92.92,0,0,1,.93-.93H89.2a.92.92,0,0,1,.93.93V80.6a.92.92,0,0,1-.93.93Z"/><path d="M59.33,72.2A11.22,11.22,0,0,1,48.13,61H46.27A13.08,13.08,0,0,0,59.33,74.07Z"/><path d="M76.13,61a16.8,16.8,0,1,0-16.8,16.8A16.8,16.8,0,0,0,76.13,61ZM44.4,61A14.94,14.94,0,1,1,59.33,75.93,14.93,14.93,0,0,1,44.4,61Z"/><path d="M45.33,45.13a2.8,2.8,0,1,0-2.8,2.8A2.8,2.8,0,0,0,45.33,45.13Zm-3.73,0a.94.94,0,1,1,.93.94A.93.93,0,0,1,41.6,45.13Z"/><path d="M45.33,76.87a2.8,2.8,0,1,0-2.8,2.8A2.8,2.8,0,0,0,45.33,76.87Zm-3.73,0a.94.94,0,1,1,.93.93A.94.94,0,0,1,41.6,76.87Z"/><path d="M82.67,45.13a2.8,2.8,0,1,0,2.8-2.8A2.8,2.8,0,0,0,82.67,45.13Zm3.73,0a.94.94,0,1,1-.93-.93A.94.94,0,0,1,86.4,45.13Z"/><path d="M88.27,76.87a2.8,2.8,0,1,0-2.8,2.8A2.8,2.8,0,0,0,88.27,76.87Zm-3.74,0a.94.94,0,1,1,.94.93A.94.94,0,0,1,84.53,76.87Z"/><path d="M59.33,64.73A3.73,3.73,0,1,0,55.6,61,3.73,3.73,0,0,0,59.33,64.73Zm0-5.6A1.87,1.87,0,1,1,57.47,61,1.87,1.87,0,0,1,59.33,59.13Z"/><path d="M86.4,49.8V72.2H84.53V49.8Z"/><path d="M82.67,49.8V72.2H80.8V49.8Z"/><path d="M14.69,95.79h98.62a3.7,3.7,0,0,0,3.69-3.7V28.7a3.7,3.7,0,0,0-3.69-3.7H14.69A3.7,3.7,0,0,0,11,28.7V92.09A3.7,3.7,0,0,0,14.69,95.79ZM14.16,28.7a.53.53,0,0,1,.53-.53h98.62a.53.53,0,0,1,.53.53V92.09a.53.53,0,0,1-.53.53H14.69a.53.53,0,0,1-.53-.53ZM125,98.62v3a1.43,1.43,0,0,1-1.42,1.42H4.46A1.43,1.43,0,0,1,3,101.58v-3H53.11A2,2,0,0,0,55,100.05H73a2,2,0,0,0,1.91-1.43Z"/></svg>