<svg id="Capa_1" data-name="Capa 1" xmlns="http://www.w3.org/2000/svg" viewBox="0 0 128 128"><title>ram</title><path d="M61.37,86.85H56.18a.67.67,0,0,1-.67-.68V41.83a.67.67,0,0,1,.67-.68h5.18a.94.94,0,0,0,0-1.88H56.18a2.56,2.56,0,0,0-2.55,2.56V86.17a2.56,2.56,0,0,0,2.55,2.56h5.19a.94.94,0,0,0,0-1.88Z"/><path d="M71.82,39.27H66.14a.94.94,0,0,0,0,1.88h5.68a.67.67,0,0,1,.67.68V86.17a.67.67,0,0,1-.67.68H66.16a.94.94,0,1,0,0,1.88h5.66a2.56,2.56,0,0,0,2.55-2.56V41.83A2.56,2.56,0,0,0,71.82,39.27Z"/><path d="M88.62,56.49a2.79,2.79,0,0,0,2.8-2.79V51.21a2.8,2.8,0,0,0-2.8-2.8h-6V44.94h6a2.79,2.79,0,0,0,2.8-2.79V39.66a2.79,2.79,0,0,0-2.8-2.79h-6V34.64A3.64,3.64,0,0,0,79,31H49a3.64,3.64,0,0,0-3.64,3.64v2.23h-6a2.79,2.79,0,0,0-2.8,2.79v2.49a2.79,2.79,0,0,0,2.8,2.79h6v3.47h-6a2.8,2.8,0,0,0-2.8,2.8V53.7a2.79,2.79,0,0,0,2.8,2.79h6V60h-6a2.8,2.8,0,0,0-2.8,2.8v2.48a2.8,2.8,0,0,0,2.8,2.8h6v3.47h-6a2.79,2.79,0,0,0-2.8,2.79v2.49a2.8,2.8,0,0,0,2.8,2.8h6v3.47h-6a2.79,2.79,0,0,0-2.8,2.79v2.49a2.79,2.79,0,0,0,2.8,2.79h6v2.23A3.64,3.64,0,0,0,49,97H79a3.64,3.64,0,0,0,3.64-3.64V91.13h6a2.79,2.79,0,0,0,2.8-2.79V85.85a2.79,2.79,0,0,0-2.8-2.79h-6V79.59h6a2.8,2.8,0,0,0,2.8-2.8V74.3a2.79,2.79,0,0,0-2.8-2.79h-6V68h6a2.8,2.8,0,0,0,2.8-2.8V62.76a2.8,2.8,0,0,0-2.8-2.8h-6V56.49Zm-6-17.74h6a.92.92,0,0,1,.92.91v2.49a.92.92,0,0,1-.92.92h-6Zm0,11.54h6a.92.92,0,0,1,.92.92V53.7a.92.92,0,0,1-.92.91h-6Zm-37.28,39h-6a.92.92,0,0,1-.92-.91V85.85a.92.92,0,0,1,.92-.92h6v4.32Zm0-11.54h-6a.92.92,0,0,1-.92-.92V74.3a.92.92,0,0,1,.92-.91h6v4.32Zm0-11.55h-6a.92.92,0,0,1-.92-.92V62.76a.92.92,0,0,1,.92-.92h6v4.32Zm0-11.55h-6a.92.92,0,0,1-.92-.91V51.21a.92.92,0,0,1,.92-.92h6v4.32Zm0-11.54h-6a.92.92,0,0,1-.92-.92V39.66a.92.92,0,0,1,.92-.91h6v4.32Zm35.4,50.29A1.76,1.76,0,0,1,79,95.12H49a1.76,1.76,0,0,1-1.76-1.76V34.64A1.76,1.76,0,0,1,49,32.88H79a1.76,1.76,0,0,1,1.76,1.76Zm7.86-8.43a.92.92,0,0,1,.92.92v2.49a.92.92,0,0,1-.92.91h-6V84.93Zm0-11.54a.92.92,0,0,1,.92.91v2.49a.92.92,0,0,1-.92.92h-6V73.39Zm0-11.55a.92.92,0,0,1,.92.92v2.48a.92.92,0,0,1-.92.92h-6V61.84Z"/><path d="M68.11,70.47a.5.5,0,0,0,.37-.48v-.73a.49.49,0,0,0-.64-.47c-1,.33-2.18.71-3.52,1.13a2,2,0,0,0-.33-.53,1.82,1.82,0,0,0-.41-.35,2.09,2.09,0,0,0-.48-.19,3.42,3.42,0,0,0-.48-.08,3.54,3.54,0,0,0-.48,0,2.64,2.64,0,0,0-1.06.19,1.62,1.62,0,0,0-.7.56,2.5,2.5,0,0,0-.38.86,4.68,4.68,0,0,0-.13,1.13v1.4a.5.5,0,0,0,.5.5H68a.49.49,0,0,0,.49-.5v-.75a.49.49,0,0,0-.49-.49H64.52v-.29Zm-4.65,1.18H61.15v-.58a.4.4,0,0,1,.13-.31.6.6,0,0,1,.32-.18A2.18,2.18,0,0,1,62,70.5l.32,0,.33,0a2.06,2.06,0,0,1,.37.1.77.77,0,0,1,.34.2.5.5,0,0,1,.14.35Z"/><path d="M68.16,64.33a.41.41,0,0,0,.32-.4v-.88a.41.41,0,0,0-.49-.4l-7.8,1.68a.42.42,0,0,0-.32.4v.89a.41.41,0,0,0,.32.39L68,67.7a.41.41,0,0,0,.49-.4v-.89a.4.4,0,0,0-.33-.39l-1.51-.28V64.62Zm-2.59,1.29-3.19-.45,3.19-.44Z"/><path d="M68.19,60l-5.8,0,5.85-1a.3.3,0,0,0,.24-.3v-.79a.3.3,0,0,0-.25-.3l-2.77-.46c-1.4-.24-2.41-.41-3-.5l5.76,0a.29.29,0,0,0,.29-.3V55.6a.29.29,0,0,0-.3-.3h-8a.3.3,0,0,0-.3.3v1.46a.31.31,0,0,0,.25.3l5.49.94-5.48.88a.3.3,0,0,0-.26.3V61a.31.31,0,0,0,.3.3h8a.3.3,0,0,0,.3-.3v-.69A.29.29,0,0,0,68.19,60Z"/><path d="M55.87,13.17H64A2,2,0,0,0,64,9.1H55.87a2,2,0,1,0,0,4.07Z"/><path d="M70.1,13.17h2a2,2,0,1,0,0-4.07h-2a2,2,0,0,0,0,4.07Z"/><path d="M89.61,3H38.39a9,9,0,0,0-9,9V116a9,9,0,0,0,9,9H89.61a9,9,0,0,0,9-9V12A9,9,0,0,0,89.61,3ZM94.5,116a4.89,4.89,0,0,1-4.89,4.89H38.39A4.89,4.89,0,0,1,33.5,116V19.27h61Zm0-100.84h-61V12a4.89,4.89,0,0,1,4.89-4.89H89.61A4.89,4.89,0,0,1,94.5,12Z"/></svg>