<svg id="Capa_1" data-name="Capa 1" xmlns="http://www.w3.org/2000/svg" viewBox="0 0 128 128"><title>rom</title><path d="M85.87,32.75H42.13A3.13,3.13,0,0,0,39,35.88V92.12a3.13,3.13,0,0,0,3.13,3.13H85.87A3.13,3.13,0,0,0,89,92.12V35.88A3.13,3.13,0,0,0,85.87,32.75Zm1,59.37a1,1,0,0,1-1,1H42.13a1,1,0,0,1-1.05-1V35.88a1,1,0,0,1,1.05-1.05H85.87a1,1,0,0,1,1,1.05Z"/><path d="M76.5,69.21A12.52,12.52,0,0,1,64,81.71v2.08A14.6,14.6,0,0,0,78.58,69.21Z"/><path d="M64,50.46A18.75,18.75,0,1,0,82.75,69.21,18.74,18.74,0,0,0,64,50.46Zm0,35.42A16.67,16.67,0,1,1,80.67,69.21,16.68,16.68,0,0,1,64,85.88Z"/><path d="M46.29,84.83A3.13,3.13,0,1,0,49.42,88,3.13,3.13,0,0,0,46.29,84.83Zm0,4.17a1,1,0,1,1,0-2.08,1,1,0,1,1,0,2.08Z"/><path d="M81.71,84.83A3.13,3.13,0,1,0,84.83,88,3.13,3.13,0,0,0,81.71,84.83Zm0,4.17a1,1,0,1,1,1-1A1,1,0,0,1,81.71,89Z"/><path d="M46.29,43.17A3.13,3.13,0,1,0,43.17,40,3.13,3.13,0,0,0,46.29,43.17Zm0-4.17a1,1,0,1,1-1,1A1,1,0,0,1,46.29,39Z"/><path d="M81.71,36.92A3.13,3.13,0,1,0,84.83,40,3.13,3.13,0,0,0,81.71,36.92Zm0,4.16a1,1,0,1,1,0-2.08,1,1,0,1,1,0,2.08Z"/><path d="M68.17,69.21A4.17,4.17,0,1,0,64,73.38,4.17,4.17,0,0,0,68.17,69.21Zm-6.25,0A2.08,2.08,0,1,1,64,71.29,2.08,2.08,0,0,1,61.92,69.21Z"/><path d="M51.5,39h25v2.08h-25Z"/><path d="M51.5,43.17h25v2.08h-25Z"/><path d="M55.87,13.17H64A2,2,0,0,0,64,9.1H55.87a2,2,0,1,0,0,4.07Z"/><path d="M70.1,13.17h2a2,2,0,1,0,0-4.07h-2a2,2,0,0,0,0,4.07Z"/><path d="M89.61,3H38.39a9,9,0,0,0-9,9V116a9,9,0,0,0,9,9H89.61a9,9,0,0,0,9-9V12A9,9,0,0,0,89.61,3ZM94.5,116a4.89,4.89,0,0,1-4.89,4.89H38.39A4.89,4.89,0,0,1,33.5,116V19.27h61Zm0-100.84h-61V12a4.89,4.89,0,0,1,4.89-4.89H89.61A4.89,4.89,0,0,1,94.5,12Z"/></svg>