<svg id="Capa_1" data-name="Capa 1" xmlns="http://www.w3.org/2000/svg" viewBox="0 0 128 128"><title>sistema</title><path d="M55.87,13.17H64A2,2,0,0,0,64,9.1H55.87a2,2,0,1,0,0,4.07Z"/><path d="M70.1,13.17h2a2,2,0,1,0,0-4.07h-2a2,2,0,0,0,0,4.07Z"/><path d="M89.61,3H38.39a9,9,0,0,0-9,9V116a9,9,0,0,0,9,9H89.61a9,9,0,0,0,9-9V12A9,9,0,0,0,89.61,3ZM94.5,116a4.89,4.89,0,0,1-4.89,4.89H38.39A4.89,4.89,0,0,1,33.5,116V19.27h61Zm0-100.84h-61V12a4.89,4.89,0,0,1,4.89-4.89H89.61A4.89,4.89,0,0,1,94.5,12Z"/><path d="M45.65,51.38h36.7v2.3H45.65Z"/><path d="M67.44,56H82.35v2.3H67.44Z"/><path d="M45.65,56H60.56v2.3H45.65Z"/><path d="M67.44,46.8H82.35v2.29H67.44Z"/><path d="M45.65,46.8H60.56v2.29H45.65Z"/><path d="M45.65,42.21h36.7V44.5H45.65Z"/><path d="M89.23,48.14V42.21a6.88,6.88,0,0,0-6.88-6.88v2.29a4.6,4.6,0,0,1,4.59,4.59v5.93a8.93,8.93,0,0,0,1.91,5.54,8.88,8.88,0,0,0-1.91,5.54v5.93a4.59,4.59,0,0,1-4.59,4.58V72a6.89,6.89,0,0,0,6.88-6.88V59.22a6.65,6.65,0,0,1,2-4.73l.81-.81-.81-.81A6.67,6.67,0,0,1,89.23,48.14Z"/><path d="M41.06,65.15V59.22a8.88,8.88,0,0,0-1.91-5.54,8.93,8.93,0,0,0,1.91-5.54V42.21a4.6,4.6,0,0,1,4.59-4.59V35.33a6.88,6.88,0,0,0-6.88,6.88v5.93a6.67,6.67,0,0,1-2,4.73l-.81.81.81.81a6.65,6.65,0,0,1,2,4.73v5.93A6.89,6.89,0,0,0,45.65,72v-2.3A4.59,4.59,0,0,1,41.06,65.15Z"/><path d="M64,72a4.59,4.59,0,1,0,4.59,4.59A4.6,4.6,0,0,0,64,72Zm0,6.88a2.3,2.3,0,1,1,2.29-2.29A2.29,2.29,0,0,1,64,78.91Z"/><path d="M64,67.44a9.26,9.26,0,0,0-4.37,1.1l1.1,2a6.88,6.88,0,0,1,9.32,9.33l2,1.09A9.17,9.17,0,0,0,64,67.44Z"/><path d="M64,83.5a6.88,6.88,0,0,1-6-10.16l-2-1.09A9.18,9.18,0,0,0,68.37,84.69l-1.1-2A6.91,6.91,0,0,1,64,83.5Z"/><path d="M80.06,73.43l-2.87-.72a14.66,14.66,0,0,0-1.1-2.65l1.52-2.54L73.1,63l-2.54,1.52a13.35,13.35,0,0,0-2.65-1.1l-.72-2.87H60.81l-.72,2.87a13.6,13.6,0,0,0-2.65,1.1L54.9,63l-4.51,4.51,1.53,2.53a13.69,13.69,0,0,0-1.1,2.66l-2.88.72V79.8l2.87.72a14.66,14.66,0,0,0,1.1,2.65l-1.52,2.54,4.51,4.51,2.54-1.52a13.35,13.35,0,0,0,2.65,1.1l.72,2.87h6.38l.72-2.87a13.6,13.6,0,0,0,2.65-1.1l2.54,1.53,4.51-4.51-1.53-2.54a13.6,13.6,0,0,0,1.1-2.65l2.88-.73ZM77.76,78l-2.46.62-.16.68a11.62,11.62,0,0,1-1.36,3.28l-.37.59,1.31,2.18-2,2L70.57,86l-.6.36a11.22,11.22,0,0,1-3.28,1.36l-.68.17-.61,2.46H62.6L62,87.92l-.68-.17A11,11,0,0,1,58,86.39L57.44,86l-2.18,1.31-2-2,1.31-2.18-.37-.59a11.62,11.62,0,0,1-1.36-3.28l-.16-.68L50.24,78V75.22l2.46-.62.16-.67a11.56,11.56,0,0,1,1.36-3.29l.37-.59-1.31-2.18,2-2,2.17,1.3.6-.36a11.5,11.5,0,0,1,3.28-1.36l.68-.16.61-2.47h2.8L66,65.31l.68.17A11.22,11.22,0,0,1,70,66.84l.59.36,2.18-1.31,2,2-1.31,2.18.37.59a11.62,11.62,0,0,1,1.36,3.28l.16.68,2.46.62Z"/></svg>