<svg id="Capa_1" data-name="Capa 1" xmlns="http://www.w3.org/2000/svg" viewBox="0 0 128 128"><title>sonido_dvd</title><path d="M104,13a20.54,20.54,0,0,0-23.7-3.82h0l-.62.34-.11.06c-.36.2-.72.42-1.07.64l-.11.07c-.38.25-.76.51-1.13.78l-.13.1-.9.73-.24.21c-.33.29-.65.59-1,.9s-.61.64-.9,1l-.21.24q-.37.44-.72.9l-.11.13c-.27.37-.53.75-.78,1.13l-.07.11c-.22.35-.43.71-.64,1.07l-.06.11-.34.62h0A20.49,20.49,0,0,0,98.69,45.79h0l.62-.34.1-.06c.37-.2.73-.41,1.08-.64l.1-.07c.39-.24.76-.5,1.13-.78l.14-.1c.3-.23.6-.48.89-.73l.25-.21c.33-.29.65-.58,1-.9s.61-.63.9-1l.21-.25q.38-.43.72-.9a1.47,1.47,0,0,0,.1-.13c.28-.37.54-.75.79-1.13l.06-.1c.23-.36.44-.72.64-1.08l.07-.11.34-.62h0A20.52,20.52,0,0,0,104,13ZM89.48,8.41A19.06,19.06,0,0,1,106.55,36l-9.32-5.1A8.47,8.47,0,0,0,86.05,19.73L81,10.41A19.14,19.14,0,0,1,89.48,8.41Zm15.68,29.94c-.17.25-.35.49-.53.73l-.17.22-.54.65a2,2,0,0,1-.19.22c-.24.27-.49.54-.75.8s-.53.52-.81.76l-.21.18c-.22.19-.43.37-.66.55l-.22.17c-.24.18-.48.36-.73.53l-.16.11c-.31.21-.62.41-.94.6l-5.09-9.31a8.42,8.42,0,0,0,1.32-1.08,8.91,8.91,0,0,0,1.08-1.32l9.32,5.09c-.19.32-.4.63-.6.94ZM93.78,33.08a.71.71,0,0,1-.14.1,6.58,6.58,0,0,1-.76.49l0,0-.13.07a7.06,7.06,0,0,1-9.52-9.52l.07-.14v0a7.57,7.57,0,0,1,.49-.76l.1-.14a6.67,6.67,0,0,1,1.3-1.3l.14-.1a8.9,8.9,0,0,1,.76-.49l0,0,.13-.06a7,7,0,0,1,3.24-.79,7.05,7.05,0,0,1,6.28,10.3l-.07.14,0,0a6.52,6.52,0,0,1-.48.76,1.71,1.71,0,0,1-.11.14,5.69,5.69,0,0,1-.6.7A6.71,6.71,0,0,1,93.78,33.08ZM73.69,16.77l.11-.15c.18-.25.35-.5.54-.74l.17-.22c.17-.22.36-.44.54-.65l.18-.21c.25-.28.5-.55.76-.81s.53-.51.81-.76l.21-.18c.21-.19.43-.37.65-.54l.23-.17c.24-.19.48-.37.73-.54l.16-.11c.3-.21.62-.41.94-.6l5.09,9.32a7.43,7.43,0,0,0-1.32,1.08,8.42,8.42,0,0,0-1.08,1.32l-9.32-5.1C73.28,17.4,73.48,17.08,73.69,16.77ZM76,41a19.09,19.09,0,0,1-3.57-22l9.32,5.09A8.46,8.46,0,0,0,92.91,35.23L98,44.55A19.12,19.12,0,0,1,76,41Z"/><path d="M87.49,25.48a2.81,2.81,0,0,0-.83,2,2.77,2.77,0,0,0,.83,2,2.81,2.81,0,0,0,4,0,2.77,2.77,0,0,0,.83-2,2.81,2.81,0,0,0-.83-2A2.88,2.88,0,0,0,87.49,25.48Zm3,3a1.41,1.41,0,1,1-1-2.41,1.41,1.41,0,0,1,1,.41,1.4,1.4,0,0,1,0,2Z"/><path d="M79.48,54.19h-31A5.82,5.82,0,0,0,42.71,60v50.32a5.82,5.82,0,0,0,5.81,5.81h31a5.82,5.82,0,0,0,5.81-5.81V60A5.82,5.82,0,0,0,79.48,54.19Zm-31,3.87h31A1.94,1.94,0,0,1,81.42,60V96.77H46.58V60A1.94,1.94,0,0,1,48.52,58.06Zm31,54.2h-31a1.94,1.94,0,0,1-1.94-1.94v-9.67H81.42v9.67A1.94,1.94,0,0,1,79.48,112.26Z"/><path d="M62.06,104.52h3.88v3.87H62.06Z"/><path d="M54.32,104.52h3.87v3.87H54.32Z"/><path d="M69.81,104.52h3.87v3.87H69.81Z"/><path d="M64,92.9A13.55,13.55,0,1,0,50.45,79.35,13.56,13.56,0,0,0,64,92.9Zm0-23.22a9.68,9.68,0,1,1-9.68,9.67A9.69,9.69,0,0,1,64,69.68Z"/><path d="M64,85.16a5.81,5.81,0,1,0-5.81-5.81A5.81,5.81,0,0,0,64,85.16Zm0-7.74a1.94,1.94,0,1,1-1.94,1.93A1.94,1.94,0,0,1,64,77.42Z"/><path d="M31.1,11.61H7.87A3.88,3.88,0,0,0,4,15.48V92.9a3.87,3.87,0,0,0,3.87,3.87h3.87v15.49H4v3.87H35v-3.87H27.23V96.77H31.1A3.87,3.87,0,0,0,35,92.9V15.48A3.88,3.88,0,0,0,31.1,11.61ZM23.35,112.26H15.61V96.77h7.74Zm7.75-27.1H27.23V89H31.1V92.9H7.87V89H23.35V85.16H7.87V48.92a15.43,15.43,0,0,0,23.23,0ZM7.87,38.71A11.62,11.62,0,1,1,19.48,50.32,11.63,11.63,0,0,1,7.87,38.71ZM19.48,23.23A15.46,15.46,0,0,0,7.87,28.5v-13H31.1v13A15.46,15.46,0,0,0,19.48,23.23Z"/><path d="M19.48,46.45a7.74,7.74,0,1,0-7.74-7.74A7.75,7.75,0,0,0,19.48,46.45Zm0-11.61a3.87,3.87,0,1,1-3.87,3.87A3.87,3.87,0,0,1,19.48,34.84Z"/><path d="M19.48,61.94a7.74,7.74,0,1,0,7.75,7.74A7.75,7.75,0,0,0,19.48,61.94Zm0,11.61a3.87,3.87,0,1,1,3.87-3.87A3.88,3.88,0,0,1,19.48,73.55Z"/><path d="M108.52,61.94a7.74,7.74,0,1,0,7.74,7.74A7.75,7.75,0,0,0,108.52,61.94Zm0,11.61a3.87,3.87,0,1,1,3.87-3.87A3.87,3.87,0,0,1,108.52,73.55Z"/><path d="M120.13,54.87H93v4h0v34a3.87,3.87,0,0,0,3.87,3.87h3.87v15.49H93v3.87h31v-3.87h-7.74V96.77h3.87A3.87,3.87,0,0,0,124,92.9v-38Zm-7.74,57.39h-7.74V96.77h7.74Zm7.74-27.1h-3.87V89h3.87V92.9H96.9V89h15.49V85.16H96.9V58.87h23.23Z"/></svg>