<svg id="Capa_1" data-name="Capa 1" xmlns="http://www.w3.org/2000/svg" viewBox="0 0 128 128"><title>sonido_sensores</title><path d="M106.58,6H72.42A3.42,3.42,0,0,0,69,9.42V43.58A3.42,3.42,0,0,0,72.42,47h34.16A3.42,3.42,0,0,0,110,43.58V9.42A3.42,3.42,0,0,0,106.58,6ZM94.77,7.37l-.34,1.36H84.57l-.34-1.36ZM70.37,21.23l1.36.34v9.86l-1.36.34Zm13.86,24.4.34-1.36h9.86l.34,1.36Zm22.35,0H96.18l-.55-2.21A.68.68,0,0,0,95,42.9H84a.68.68,0,0,0-.66.52l-.55,2.21H72.42a2,2,0,0,1-2-2.05V33.18l2.21-.55A.68.68,0,0,0,73.1,32V21a.68.68,0,0,0-.52-.66l-2.21-.55V9.42a2,2,0,0,1,2-2h10.4l.55,2.21a.68.68,0,0,0,.66.52H95a.68.68,0,0,0,.66-.52l.55-2.21h10.4a2,2,0,0,1,2,2.05v10.4l-2.21.55a.68.68,0,0,0-.52.66V32a.68.68,0,0,0,.52.66l2.21.55v10.4A2,2,0,0,1,106.58,45.63Zm2-13.86-1.36-.34V21.57l1.36-.34Z"/><path d="M103.17,11.47H75.83a1.36,1.36,0,0,0-1.36,1.36V40.17a1.36,1.36,0,0,0,1.36,1.36h27.34a1.36,1.36,0,0,0,1.36-1.36V12.83A1.36,1.36,0,0,0,103.17,11.47ZM75.83,40.17V12.83h27.34V40.17Z"/><path d="M79.48,54.19h-31A5.82,5.82,0,0,0,42.71,60v50.32a5.82,5.82,0,0,0,5.81,5.81h31a5.82,5.82,0,0,0,5.81-5.81V60A5.82,5.82,0,0,0,79.48,54.19Zm-31,3.87h31A1.94,1.94,0,0,1,81.42,60V96.77H46.58V60A1.94,1.94,0,0,1,48.52,58.06Zm31,54.2h-31a1.94,1.94,0,0,1-1.94-1.94v-9.67H81.42v9.67A1.94,1.94,0,0,1,79.48,112.26Z"/><path d="M62.06,104.52h3.88v3.87H62.06Z"/><path d="M54.32,104.52h3.87v3.87H54.32Z"/><path d="M69.81,104.52h3.87v3.87H69.81Z"/><path d="M64,92.9A13.55,13.55,0,1,0,50.45,79.35,13.56,13.56,0,0,0,64,92.9Zm0-23.22a9.68,9.68,0,1,1-9.68,9.67A9.69,9.69,0,0,1,64,69.68Z"/><path d="M64,85.16a5.81,5.81,0,1,0-5.81-5.81A5.81,5.81,0,0,0,64,85.16Zm0-7.74a1.94,1.94,0,1,1-1.94,1.93A1.94,1.94,0,0,1,64,77.42Z"/><path d="M31.1,11.61H7.87A3.88,3.88,0,0,0,4,15.48V92.9a3.87,3.87,0,0,0,3.87,3.87h3.87v15.49H4v3.87H35v-3.87H27.23V96.77H31.1A3.87,3.87,0,0,0,35,92.9V15.48A3.88,3.88,0,0,0,31.1,11.61ZM23.35,112.26H15.61V96.77h7.74Zm7.75-27.1H27.23V89H31.1V92.9H7.87V89H23.35V85.16H7.87V48.92a15.43,15.43,0,0,0,23.23,0ZM7.87,38.71A11.62,11.62,0,1,1,19.48,50.32,11.63,11.63,0,0,1,7.87,38.71ZM19.48,23.23A15.46,15.46,0,0,0,7.87,28.5v-13H31.1v13A15.46,15.46,0,0,0,19.48,23.23Z"/><path d="M19.48,46.45a7.74,7.74,0,1,0-7.74-7.74A7.75,7.75,0,0,0,19.48,46.45Zm0-11.61a3.87,3.87,0,1,1-3.87,3.87A3.87,3.87,0,0,1,19.48,34.84Z"/><path d="M19.48,61.94a7.74,7.74,0,1,0,7.75,7.74A7.75,7.75,0,0,0,19.48,61.94Zm0,11.61a3.87,3.87,0,1,1,3.87-3.87A3.88,3.88,0,0,1,19.48,73.55Z"/><path d="M108.52,61.94a7.74,7.74,0,1,0,7.74,7.74A7.75,7.75,0,0,0,108.52,61.94Zm0,11.61a3.87,3.87,0,1,1,3.87-3.87A3.87,3.87,0,0,1,108.52,73.55Z"/><path d="M120.13,54.87H93v4h0v34a3.87,3.87,0,0,0,3.87,3.87h3.87v15.49H93v3.87h31v-3.87h-7.74V96.77h3.87A3.87,3.87,0,0,0,124,92.9v-38Zm-7.74,57.39h-7.74V96.77h7.74Zm7.74-27.1h-3.87V89h3.87V92.9H96.9V89h15.49V85.16H96.9V58.87h23.23Z"/></svg>