<svg id="Capa_1" data-name="Capa 1" xmlns="http://www.w3.org/2000/svg" viewBox="0 0 128 128"><title>sonido_cable</title><path d="M110.16,17V14.87a2.57,2.57,0,0,0-2.57-2.56h-4.34a2.56,2.56,0,0,0-2.56,2.56V17h-.78V27.29h2.36v2.36h2.37v2.09a14.52,14.52,0,0,1-8.91,13.58,12.62,12.62,0,1,0-19-2.41,14.49,14.49,0,0,1-4.46-10.46v-9.1h2.36V21H77V10.73h-.79V8.56A2.56,2.56,0,0,0,73.69,6H69.35a2.56,2.56,0,0,0-2.56,2.56v2.17H66V21h2.37v2.37h2.36v9.86h0A16.15,16.15,0,0,0,86.86,48.58h.69c11-.28,18.66-7.11,18.66-16.83V29.65h2.37V27.29h2.36V17ZM68.37,8.56a1,1,0,0,1,1-1h4.34a1,1,0,0,1,1,1v2.17h-6.3ZM67.58,19.4V12.31h7.88V19.4H67.58Zm2.36,2.37V21H73.1v.79ZM76.25,36a11,11,0,1,1,22.08,0,10.92,10.92,0,0,1-1.07,4.71,10,10,0,0,0,.28-2.34,10.25,10.25,0,0,0-20.5,0,10,10,0,0,0,.28,2.34A10.92,10.92,0,0,1,76.25,36ZM87.56,47h-.39a8.82,8.82,0,1,1,.39,0Zm14.71-32.12a1,1,0,0,1,1-1h4.33a1,1,0,0,1,1,1V17h-6.31ZM107,28.08h-3.15v-.79H107Zm2.37-2.37h-7.89V18.62h7.89Z"/><path d="M79.48,54.19h-31A5.82,5.82,0,0,0,42.71,60v50.32a5.82,5.82,0,0,0,5.81,5.81h31a5.82,5.82,0,0,0,5.81-5.81V60A5.82,5.82,0,0,0,79.48,54.19Zm-31,3.87h31A1.94,1.94,0,0,1,81.42,60V96.77H46.58V60A1.94,1.94,0,0,1,48.52,58.06Zm31,54.2h-31a1.94,1.94,0,0,1-1.94-1.94v-9.67H81.42v9.67A1.94,1.94,0,0,1,79.48,112.26Z"/><path d="M62.06,104.52h3.88v3.87H62.06Z"/><path d="M54.32,104.52h3.87v3.87H54.32Z"/><path d="M69.81,104.52h3.87v3.87H69.81Z"/><path d="M64,92.9A13.55,13.55,0,1,0,50.45,79.35,13.56,13.56,0,0,0,64,92.9Zm0-23.22a9.68,9.68,0,1,1-9.68,9.67A9.69,9.69,0,0,1,64,69.68Z"/><path d="M64,85.16a5.81,5.81,0,1,0-5.81-5.81A5.81,5.81,0,0,0,64,85.16Zm0-7.74a1.94,1.94,0,1,1-1.94,1.93A1.94,1.94,0,0,1,64,77.42Z"/><path d="M31.1,11.61H7.87A3.88,3.88,0,0,0,4,15.48V92.9a3.87,3.87,0,0,0,3.87,3.87h3.87v15.49H4v3.87H35v-3.87H27.23V96.77H31.1A3.87,3.87,0,0,0,35,92.9V15.48A3.88,3.88,0,0,0,31.1,11.61ZM23.35,112.26H15.61V96.77h7.74Zm7.75-27.1H27.23V89H31.1V92.9H7.87V89H23.35V85.16H7.87V48.92a15.43,15.43,0,0,0,23.23,0ZM7.87,38.71A11.62,11.62,0,1,1,19.48,50.32,11.63,11.63,0,0,1,7.87,38.71ZM19.48,23.23A15.46,15.46,0,0,0,7.87,28.5v-13H31.1v13A15.46,15.46,0,0,0,19.48,23.23Z"/><path d="M19.48,46.45a7.74,7.74,0,1,0-7.74-7.74A7.75,7.75,0,0,0,19.48,46.45Zm0-11.61a3.87,3.87,0,1,1-3.87,3.87A3.87,3.87,0,0,1,19.48,34.84Z"/><path d="M19.48,61.94a7.74,7.74,0,1,0,7.75,7.74A7.75,7.75,0,0,0,19.48,61.94Zm0,11.61a3.87,3.87,0,1,1,3.87-3.87A3.88,3.88,0,0,1,19.48,73.55Z"/><path d="M108.52,61.94a7.74,7.74,0,1,0,7.74,7.74A7.75,7.75,0,0,0,108.52,61.94Zm0,11.61a3.87,3.87,0,1,1,3.87-3.87A3.87,3.87,0,0,1,108.52,73.55Z"/><path d="M120.13,54.87H93v4h0v34a3.87,3.87,0,0,0,3.87,3.87h3.87v15.49H93v3.87h31v-3.87h-7.74V96.77h3.87A3.87,3.87,0,0,0,124,92.9v-38Zm-7.74,57.39h-7.74V96.77h7.74Zm7.74-27.1h-3.87V89h3.87V92.9H96.9V89h15.49V85.16H96.9V58.87h23.23Z"/></svg>