<svg id="Capa_1" data-name="Capa 1" xmlns="http://www.w3.org/2000/svg" viewBox="0 0 128 128"><title>sonido_sistema</title><path d="M74.58,18.23h28.84V20H74.58Z"/><path d="M91.7,21.84h11.72v1.8H91.7Z"/><path d="M74.58,21.84H86.3v1.8H74.58Z"/><path d="M91.7,14.63h11.72v1.8H91.7Z"/><path d="M74.58,14.63H86.3v1.8H74.58Z"/><path d="M74.58,11h28.84v1.8H74.58Z"/><path d="M108.82,15.68V11a5.4,5.4,0,0,0-5.4-5.4v1.8A3.6,3.6,0,0,1,107,11v4.66a7,7,0,0,0,1.5,4.35,7,7,0,0,0-1.5,4.36v4.66a3.6,3.6,0,0,1-3.6,3.6v1.8a5.4,5.4,0,0,0,5.4-5.4V24.39a5.23,5.23,0,0,1,1.54-3.72L111,20l-.64-.63A5.24,5.24,0,0,1,108.82,15.68Z"/><path d="M71,29.05V24.39A7,7,0,0,0,69.48,20,7,7,0,0,0,71,15.68V11a3.6,3.6,0,0,1,3.6-3.6V5.62a5.4,5.4,0,0,0-5.4,5.4v4.66a5.24,5.24,0,0,1-1.54,3.72L67,20l.64.64a5.23,5.23,0,0,1,1.54,3.72v4.66a5.4,5.4,0,0,0,5.4,5.4v-1.8A3.6,3.6,0,0,1,71,29.05Z"/><path d="M89,34.45a3.61,3.61,0,1,0,3.6,3.61A3.61,3.61,0,0,0,89,34.45Zm0,5.41a1.81,1.81,0,1,1,1.8-1.8A1.81,1.81,0,0,1,89,39.86Z"/><path d="M89,30.85a7.3,7.3,0,0,0-3.43.86l.86,1.59A5.33,5.33,0,0,1,89,32.65a5.41,5.41,0,0,1,5.41,5.41,5.51,5.51,0,0,1-.65,2.57l1.58.86A7.21,7.21,0,0,0,89,30.85Z"/><path d="M89,43.46a5.41,5.41,0,0,1-5.41-5.4,5.52,5.52,0,0,1,.65-2.58l-1.58-.85a7.21,7.21,0,0,0,9.77,9.77l-.86-1.59A5.33,5.33,0,0,1,89,43.46Z"/><path d="M101.62,35.55,99.36,35a10.57,10.57,0,0,0-.86-2.09l1.19-2-3.54-3.55-2,1.2a10.82,10.82,0,0,0-2.09-.86l-.56-2.26h-5l-.56,2.26a10.48,10.48,0,0,0-2.08.86l-2-1.2-3.54,3.55,1.2,2A10.52,10.52,0,0,0,78.64,35l-2.26.57v5l2.26.57a10.48,10.48,0,0,0,.86,2.08l-1.19,2,3.54,3.54,2-1.2a10.82,10.82,0,0,0,2.09.86l.56,2.26h5l.56-2.25a11.15,11.15,0,0,0,2.08-.87l2,1.2,3.54-3.54-1.2-2a10.52,10.52,0,0,0,.87-2.08l2.26-.57Zm-1.81,3.61-1.93.48-.13.53a9,9,0,0,1-1.07,2.58l-.28.46,1,1.72-1.55,1.55-1.71-1-.47.29a9,9,0,0,1-2.58,1.07l-.53.13-.48,1.93H87.9l-.48-1.93-.53-.13a9,9,0,0,1-2.58-1.07l-.47-.29-1.71,1-1.55-1.55,1-1.71-.28-.47a9,9,0,0,1-1.07-2.58l-.13-.53-1.93-.48V37l1.93-.49.13-.53a9.09,9.09,0,0,1,1.07-2.58l.28-.46-1-1.71,1.55-1.56,1.71,1,.47-.28a8.7,8.7,0,0,1,2.58-1.07l.53-.13.48-1.94h2.2l.48,1.94.53.12a9,9,0,0,1,2.58,1.07l.47.29,1.71-1,1.55,1.56-1,1.71.28.46a9,9,0,0,1,1.07,2.58l.13.53,1.93.49Z"/><path d="M79.48,54.19h-31A5.82,5.82,0,0,0,42.71,60v50.32a5.82,5.82,0,0,0,5.81,5.81h31a5.82,5.82,0,0,0,5.81-5.81V60A5.82,5.82,0,0,0,79.48,54.19Zm-31,3.87h31A1.94,1.94,0,0,1,81.42,60V96.77H46.58V60A1.94,1.94,0,0,1,48.52,58.06Zm31,54.2h-31a1.94,1.94,0,0,1-1.94-1.94v-9.67H81.42v9.67A1.94,1.94,0,0,1,79.48,112.26Z"/><path d="M62.06,104.52h3.88v3.87H62.06Z"/><path d="M54.32,104.52h3.87v3.87H54.32Z"/><path d="M69.81,104.52h3.87v3.87H69.81Z"/><path d="M64,92.9A13.55,13.55,0,1,0,50.45,79.35,13.56,13.56,0,0,0,64,92.9Zm0-23.22a9.68,9.68,0,1,1-9.68,9.67A9.69,9.69,0,0,1,64,69.68Z"/><path d="M64,85.16a5.81,5.81,0,1,0-5.81-5.81A5.81,5.81,0,0,0,64,85.16Zm0-7.74a1.94,1.94,0,1,1-1.94,1.93A1.94,1.94,0,0,1,64,77.42Z"/><path d="M31.1,11.61H7.87A3.88,3.88,0,0,0,4,15.48V92.9a3.87,3.87,0,0,0,3.87,3.87h3.87v15.49H4v3.87H35v-3.87H27.23V96.77H31.1A3.87,3.87,0,0,0,35,92.9V15.48A3.88,3.88,0,0,0,31.1,11.61ZM23.35,112.26H15.61V96.77h7.74Zm7.75-27.1H27.23V89H31.1V92.9H7.87V89H23.35V85.16H7.87V48.92a15.43,15.43,0,0,0,23.23,0ZM7.87,38.71A11.62,11.62,0,1,1,19.48,50.32,11.63,11.63,0,0,1,7.87,38.71ZM19.48,23.23A15.46,15.46,0,0,0,7.87,28.5v-13H31.1v13A15.46,15.46,0,0,0,19.48,23.23Z"/><path d="M19.48,46.45a7.74,7.74,0,1,0-7.74-7.74A7.75,7.75,0,0,0,19.48,46.45Zm0-11.61a3.87,3.87,0,1,1-3.87,3.87A3.87,3.87,0,0,1,19.48,34.84Z"/><path d="M19.48,61.94a7.74,7.74,0,1,0,7.75,7.74A7.75,7.75,0,0,0,19.48,61.94Zm0,11.61a3.87,3.87,0,1,1,3.87-3.87A3.88,3.88,0,0,1,19.48,73.55Z"/><path d="M108.52,61.94a7.74,7.74,0,1,0,7.74,7.74A7.75,7.75,0,0,0,108.52,61.94Zm0,11.61a3.87,3.87,0,1,1,3.87-3.87A3.87,3.87,0,0,1,108.52,73.55Z"/><path d="M120.13,54.87H93v4h0v34a3.87,3.87,0,0,0,3.87,3.87h3.87v15.49H93v3.87h31v-3.87h-7.74V96.77h3.87A3.87,3.87,0,0,0,124,92.9v-38Zm-7.74,57.39h-7.74V96.77h7.74Zm7.74-27.1h-3.87V89h3.87V92.9H96.9V89h15.49V85.16H96.9V58.87h23.23Z"/></svg>