<svg id="Capa_1" data-name="Capa 1" xmlns="http://www.w3.org/2000/svg" viewBox="0 0 128 128"><title>sonido_bateria</title><path d="M113.73,42.37v-7H118V22.6h-4.27v-7a3.7,3.7,0,0,0-3.69-3.7H57.69A3.7,3.7,0,0,0,54,15.63V42.37a3.7,3.7,0,0,0,3.69,3.7H110A3.7,3.7,0,0,0,113.73,42.37Zm2.14-17.64v8.54h-2.14V24.73ZM57.69,43.93a1.56,1.56,0,0,1-1.56-1.56V15.63a1.56,1.56,0,0,1,1.56-1.56H110a1.56,1.56,0,0,1,1.56,1.56V42.37A1.56,1.56,0,0,1,110,43.93Z"/><path d="M99.75,33.27a1.14,1.14,0,0,0,1.08-.65l.34-.83-.65-.53L81.73,19.62V25.8H68a1.14,1.14,0,0,0-1.07.62l-.37.85.67.54L87.07,38.23v-5ZM84.93,34.7,72,27.94H83.87V23.45l12.4,7.68H84.93Z"/><path d="M79.48,54.19h-31A5.82,5.82,0,0,0,42.71,60v50.32a5.82,5.82,0,0,0,5.81,5.81h31a5.82,5.82,0,0,0,5.81-5.81V60A5.82,5.82,0,0,0,79.48,54.19Zm-31,3.87h31A1.94,1.94,0,0,1,81.42,60V96.77H46.58V60A1.94,1.94,0,0,1,48.52,58.06Zm31,54.2h-31a1.94,1.94,0,0,1-1.94-1.94v-9.67H81.42v9.67A1.94,1.94,0,0,1,79.48,112.26Z"/><path d="M62.06,104.52h3.88v3.87H62.06Z"/><path d="M54.32,104.52h3.87v3.87H54.32Z"/><path d="M69.81,104.52h3.87v3.87H69.81Z"/><path d="M64,92.9A13.55,13.55,0,1,0,50.45,79.35,13.56,13.56,0,0,0,64,92.9Zm0-23.22a9.68,9.68,0,1,1-9.68,9.67A9.69,9.69,0,0,1,64,69.68Z"/><path d="M64,85.16a5.81,5.81,0,1,0-5.81-5.81A5.81,5.81,0,0,0,64,85.16Zm0-7.74a1.94,1.94,0,1,1-1.94,1.93A1.94,1.94,0,0,1,64,77.42Z"/><path d="M31.1,11.61H7.87A3.88,3.88,0,0,0,4,15.48V92.9a3.87,3.87,0,0,0,3.87,3.87h3.87v15.49H4v3.87H35v-3.87H27.23V96.77H31.1A3.87,3.87,0,0,0,35,92.9V15.48A3.88,3.88,0,0,0,31.1,11.61ZM23.35,112.26H15.61V96.77h7.74Zm7.75-27.1H27.23V89H31.1V92.9H7.87V89H23.35V85.16H7.87V48.92a15.43,15.43,0,0,0,23.23,0ZM7.87,38.71A11.62,11.62,0,1,1,19.48,50.32,11.63,11.63,0,0,1,7.87,38.71ZM19.48,23.23A15.46,15.46,0,0,0,7.87,28.5v-13H31.1v13A15.46,15.46,0,0,0,19.48,23.23Z"/><path d="M19.48,46.45a7.74,7.74,0,1,0-7.74-7.74A7.75,7.75,0,0,0,19.48,46.45Zm0-11.61a3.87,3.87,0,1,1-3.87,3.87A3.87,3.87,0,0,1,19.48,34.84Z"/><path d="M19.48,61.94a7.74,7.74,0,1,0,7.75,7.74A7.75,7.75,0,0,0,19.48,61.94Zm0,11.61a3.87,3.87,0,1,1,3.87-3.87A3.88,3.88,0,0,1,19.48,73.55Z"/><path d="M108.52,61.94a7.74,7.74,0,1,0,7.74,7.74A7.75,7.75,0,0,0,108.52,61.94Zm0,11.61a3.87,3.87,0,1,1,3.87-3.87A3.87,3.87,0,0,1,108.52,73.55Z"/><path d="M120.13,54.87H93v4h0v34a3.87,3.87,0,0,0,3.87,3.87h3.87v15.49H93v3.87h31v-3.87h-7.74V96.77h3.87A3.87,3.87,0,0,0,124,92.9v-38Zm-7.74,57.39h-7.74V96.77h7.74Zm7.74-27.1h-3.87V89h3.87V92.9H96.9V89h15.49V85.16H96.9V58.87h23.23Z"/></svg>