<svg id="Capa_1" data-name="Capa 1" xmlns="http://www.w3.org/2000/svg" viewBox="0 0 128 128"><title>sonido_conexion</title><path d="M107.87,17.35A2.13,2.13,0,0,0,110,15.23V8.13A2.14,2.14,0,0,0,107.87,6H97.94a2.13,2.13,0,0,0-2.13,2.13v7.1a2.12,2.12,0,0,0,2.13,2.12h2.12v1.42H98.65v1.42h3.54v7.1H99.26a4.91,4.91,0,0,0-2-1.21c0-.07,0-.14,0-.21a5.67,5.67,0,0,0-10.46-3.05,5.63,5.63,0,0,0-2.32-.5A5.72,5.72,0,0,0,79.15,26a5.07,5.07,0,0,0-1.5.6H72.39V24.45h2.84a2.12,2.12,0,0,0,2.12-2.13V8.13A2.13,2.13,0,0,0,75.23,6h-7.1A2.14,2.14,0,0,0,66,8.13V22.32a2.13,2.13,0,0,0,2.13,2.13H71V28h5.17a4.92,4.92,0,0,0-.69,1.42H72.39v7.81H69.55a2.12,2.12,0,0,0-2.13,2.12v6.39H66v2.13A2.14,2.14,0,0,0,68.13,50H79.48a2.13,2.13,0,0,0,2.13-2.13V45.74H80.19V39.35a2.12,2.12,0,0,0-2.13-2.12H73.81V30.84h1.42a5,5,0,0,0,5,5H95.81a5,5,0,0,0,4.91-4.26h2.89v5.68h-5V50H110V37.23h-5v-7.1h-4.32a4.6,4.6,0,0,0-.44-1.42h3.34V20.19h3.55V18.77h-1.42V17.35Zm-31.93,0H67.42V10.26h8.52ZM68.13,7.42h7.1a.71.71,0,0,1,.71.71v.71H67.42V8.13A.71.71,0,0,1,68.13,7.42Zm-.71,14.9V18.77h8.52v3.55a.71.71,0,0,1-.71.71h-7.1A.71.71,0,0,1,67.42,22.32ZM80.19,47.87a.71.71,0,0,1-.71.71H68.13a.71.71,0,0,1-.71-.71v-.71H80.19Zm-1.42-8.52v6.39H68.84V39.35a.7.7,0,0,1,.71-.7h8.51A.7.7,0,0,1,78.77,39.35Zm21.29,9.23V44.32h8.52v4.26Zm8.52-5.68h-8.52V38.65h8.52ZM95.81,34.39H80.19a3.55,3.55,0,0,1-.42-7.07l.46-.06.13-.45a4.28,4.28,0,0,1,4.09-3.07,4.21,4.21,0,0,1,2.23.64l.68.42.33-.73a4.26,4.26,0,0,1,8.12,1.8,4.14,4.14,0,0,1-.06.66l-.11.7.7.11a3.55,3.55,0,0,1-.53,7.05Zm2.13-27h9.93a.71.71,0,0,1,.71.71v5H97.23v-5A.71.71,0,0,1,97.94,7.42Zm-.71,7.81v-.71h11.35v.71a.71.71,0,0,1-.71.71H97.94A.71.71,0,0,1,97.23,15.23Zm7.09,3.54h-2.84V17.35h2.84Z"/><path d="M101.48,40.06h1.42v1.42h-1.42Z"/><path d="M105.74,45.74h1.42v1.42h-1.42Z"/><path d="M104.32,40.06h2.84v1.42h-2.84Z"/><path d="M101.48,45.74h2.84v1.42h-2.84Z"/><path d="M79.48,54.19h-31A5.82,5.82,0,0,0,42.71,60v50.32a5.82,5.82,0,0,0,5.81,5.81h31a5.82,5.82,0,0,0,5.81-5.81V60A5.82,5.82,0,0,0,79.48,54.19Zm-31,3.87h31A1.94,1.94,0,0,1,81.42,60V96.77H46.58V60A1.94,1.94,0,0,1,48.52,58.06Zm31,54.2h-31a1.94,1.94,0,0,1-1.94-1.94v-9.67H81.42v9.67A1.94,1.94,0,0,1,79.48,112.26Z"/><path d="M62.06,104.52h3.88v3.87H62.06Z"/><path d="M54.32,104.52h3.87v3.87H54.32Z"/><path d="M69.81,104.52h3.87v3.87H69.81Z"/><path d="M64,92.9A13.55,13.55,0,1,0,50.45,79.35,13.56,13.56,0,0,0,64,92.9Zm0-23.22a9.68,9.68,0,1,1-9.68,9.67A9.69,9.69,0,0,1,64,69.68Z"/><path d="M64,85.16a5.81,5.81,0,1,0-5.81-5.81A5.81,5.81,0,0,0,64,85.16Zm0-7.74a1.94,1.94,0,1,1-1.94,1.93A1.94,1.94,0,0,1,64,77.42Z"/><path d="M31.1,11.61H7.87A3.88,3.88,0,0,0,4,15.48V92.9a3.87,3.87,0,0,0,3.87,3.87h3.87v15.49H4v3.87H35v-3.87H27.23V96.77H31.1A3.87,3.87,0,0,0,35,92.9V15.48A3.88,3.88,0,0,0,31.1,11.61ZM23.35,112.26H15.61V96.77h7.74Zm7.75-27.1H27.23V89H31.1V92.9H7.87V89H23.35V85.16H7.87V48.92a15.43,15.43,0,0,0,23.23,0ZM7.87,38.71A11.62,11.62,0,1,1,19.48,50.32,11.63,11.63,0,0,1,7.87,38.71ZM19.48,23.23A15.46,15.46,0,0,0,7.87,28.5v-13H31.1v13A15.46,15.46,0,0,0,19.48,23.23Z"/><path d="M19.48,46.45a7.74,7.74,0,1,0-7.74-7.74A7.75,7.75,0,0,0,19.48,46.45Zm0-11.61a3.87,3.87,0,1,1-3.87,3.87A3.87,3.87,0,0,1,19.48,34.84Z"/><path d="M19.48,61.94a7.74,7.74,0,1,0,7.75,7.74A7.75,7.75,0,0,0,19.48,61.94Zm0,11.61a3.87,3.87,0,1,1,3.87-3.87A3.88,3.88,0,0,1,19.48,73.55Z"/><path d="M108.52,61.94a7.74,7.74,0,1,0,7.74,7.74A7.75,7.75,0,0,0,108.52,61.94Zm0,11.61a3.87,3.87,0,1,1,3.87-3.87A3.87,3.87,0,0,1,108.52,73.55Z"/><path d="M120.13,54.87H93v4h0v34a3.87,3.87,0,0,0,3.87,3.87h3.87v15.49H93v3.87h31v-3.87h-7.74V96.77h3.87A3.87,3.87,0,0,0,124,92.9v-38Zm-7.74,57.39h-7.74V96.77h7.74Zm7.74-27.1h-3.87V89h3.87V92.9H96.9V89h15.49V85.16H96.9V58.87h23.23Z"/></svg>