<svg id="Capa_1" data-name="Capa 1" xmlns="http://www.w3.org/2000/svg" viewBox="0 0 128 128"><title>sonido</title><path d="M79.48,54.32h-31a5.82,5.82,0,0,0-5.81,5.81v50.32a5.82,5.82,0,0,0,5.81,5.81h31a5.82,5.82,0,0,0,5.81-5.81V60.13A5.82,5.82,0,0,0,79.48,54.32Zm-31,3.87h31a1.94,1.94,0,0,1,1.94,1.94V96.9H46.58V60.13A1.94,1.94,0,0,1,48.52,58.19Zm31,54.2h-31a1.94,1.94,0,0,1-1.94-1.94v-9.68H81.42v9.68A1.94,1.94,0,0,1,79.48,112.39Z"/><path d="M62.06,104.65h3.88v3.87H62.06Z"/><path d="M54.32,104.65h3.87v3.87H54.32Z"/><path d="M69.81,104.65h3.87v3.87H69.81Z"/><path d="M64,93A13.55,13.55,0,1,0,50.45,79.48,13.57,13.57,0,0,0,64,93Zm0-23.22a9.68,9.68,0,1,1-9.68,9.67A9.69,9.69,0,0,1,64,69.81Z"/><path d="M64,85.29a5.81,5.81,0,1,0-5.81-5.81A5.82,5.82,0,0,0,64,85.29Zm0-7.74a1.94,1.94,0,1,1-1.94,1.93A1.94,1.94,0,0,1,64,77.55Z"/><path d="M31.1,11.74H7.87A3.88,3.88,0,0,0,4,15.61V93A3.87,3.87,0,0,0,7.87,96.9h3.87v15.49H4v3.87H35v-3.87H27.23V96.9H31.1A3.87,3.87,0,0,0,35,93V15.61A3.88,3.88,0,0,0,31.1,11.74ZM23.35,112.39H15.61V96.9h7.74Zm7.75-27.1H27.23v3.87H31.1V93H7.87V89.16H23.35V85.29H7.87V49.05A15.43,15.43,0,0,0,31.1,49ZM7.87,38.84A11.62,11.62,0,1,1,19.48,50.45,11.62,11.62,0,0,1,7.87,38.84ZM19.48,23.35A15.43,15.43,0,0,0,7.87,28.63v-13H31.1v13A15.44,15.44,0,0,0,19.48,23.35Z"/><path d="M19.48,46.58a7.74,7.74,0,1,0-7.74-7.74A7.75,7.75,0,0,0,19.48,46.58Zm0-11.61a3.87,3.87,0,1,1-3.87,3.87A3.87,3.87,0,0,1,19.48,35Z"/><path d="M19.48,62.06a7.75,7.75,0,1,0,7.75,7.75A7.75,7.75,0,0,0,19.48,62.06Zm0,11.62a3.87,3.87,0,1,1,3.87-3.87A3.88,3.88,0,0,1,19.48,73.68Z"/><path d="M120.13,11.74H96.9A3.88,3.88,0,0,0,93,15.61V93A3.87,3.87,0,0,0,96.9,96.9h3.87v15.49H93v3.87h31v-3.87h-7.74V96.9h3.87A3.87,3.87,0,0,0,124,93V15.61A3.88,3.88,0,0,0,120.13,11.74Zm-7.74,100.65h-7.74V96.9h7.74Zm7.74-27.1h-3.87v3.87h3.87V93H96.9V89.16h15.49V85.29H96.9V49.05a15.43,15.43,0,0,0,23.23,0ZM96.9,38.84a11.62,11.62,0,1,1,11.62,11.61A11.62,11.62,0,0,1,96.9,38.84Zm11.62-15.49A15.44,15.44,0,0,0,96.9,28.63v-13h23.23v13A15.43,15.43,0,0,0,108.52,23.35Z"/><path d="M108.52,46.58a7.74,7.74,0,1,0-7.75-7.74A7.75,7.75,0,0,0,108.52,46.58Zm0-11.61a3.87,3.87,0,1,1-3.87,3.87A3.87,3.87,0,0,1,108.52,35Z"/><path d="M108.52,62.06a7.75,7.75,0,1,0,7.74,7.75A7.76,7.76,0,0,0,108.52,62.06Zm0,11.62a3.87,3.87,0,1,1,3.87-3.87A3.87,3.87,0,0,1,108.52,73.68Z"/></svg>