<svg id="Capa_1" data-name="Capa 1" xmlns="http://www.w3.org/2000/svg" viewBox="0 0 128 128"><title>tv</title><path d="M40.11,36a2.58,2.58,0,0,0-3.64,0L30.05,42.4A2.57,2.57,0,1,0,33.68,46l6.43-6.42A2.58,2.58,0,0,0,40.11,36Z"/><path d="M50.39,36a2.58,2.58,0,0,0-3.64,0L32.62,50.11a2.57,2.57,0,1,0,3.63,3.63L50.39,39.61A2.58,2.58,0,0,0,50.39,36Z"/><path d="M4,20.41V76.85H7.52V23.92h113V76.85H124V20.41Z"/><path d="M4,93.3H55.9v4.6H34.09l-3.33,3.34v6.35H97.24v-6.35L93.91,97.9H72.1V93.3H124V79.78H4Zm88.45,8.12,1.28,1.28v1.38H34.27V102.7l1.28-1.28H64V97.9H59.41V93.3h9.18v8.12ZM7.52,83.3h113v6.48H7.52Z"/><path d="M21.62,27.24H10.84V38H21.62ZM18.1,34.51H14.35V30.76H18.1Z"/><path d="M10.84,51.7H21.62V40.92H10.84Zm3.51-7.27H18.1v3.75H14.35Z"/><path d="M118.14,61h-3.51V39.55h3.51Zm0-23.75h-3.51V33.69h3.51Zm0-5.86h-3.51V27.83h3.51Z"/><path d="M118.45,88.3h-26V84.78h26V88.3Zm-28.3,0H86.64V84.78h3.51Zm-5.86,0H80.78V84.78h3.51Z"/></svg>