<svg id="Capa_1" data-name="Capa 1" xmlns="http://www.w3.org/2000/svg" viewBox="0 0 128 128"><title>tv_bateria</title><path d="M91.73,65.37v-7H96V45.6H91.73v-7A3.7,3.7,0,0,0,88,34.93H35.69A3.7,3.7,0,0,0,32,38.63V65.37a3.7,3.7,0,0,0,3.69,3.7H88A3.7,3.7,0,0,0,91.73,65.37Zm2.14-17.64v8.54H91.73V47.73ZM35.69,66.93a1.56,1.56,0,0,1-1.56-1.56V38.63a1.56,1.56,0,0,1,1.56-1.56H88a1.56,1.56,0,0,1,1.56,1.56V65.37A1.56,1.56,0,0,1,88,66.93Z"/><path d="M77.75,56.27a1.14,1.14,0,0,0,1.08-.65l.34-.83-.65-.53L59.73,42.62V48.8H46a1.14,1.14,0,0,0-1.07.62l-.37.85.67.54L65.07,61.23v-5ZM62.93,57.7,50,50.94H61.87V46.45l12.4,7.68H62.93Z"/><path d="M4,20.41V76.85H7.52V23.92h113V76.85H124V20.41Z"/><path d="M4,93.3H55.9v4.6H34.09l-3.33,3.34v6.35H97.24v-6.35L93.91,97.9H72.1V93.3H124V79.78H4Zm88.45,8.12,1.28,1.28v1.38H34.27V102.7l1.28-1.28H64V97.9H59.41V93.3h9.18v8.12ZM7.52,83.3h113v6.48H7.52Z"/><path d="M118.45,88.3h-26V84.78h26V88.3Zm-28.3,0H86.64V84.78h3.51Zm-5.86,0H80.78V84.78h3.51Z"/></svg>