<svg id="Capa_1" data-name="Capa 1" xmlns="http://www.w3.org/2000/svg" viewBox="0 0 128 128"><title>tv_censor</title><path d="M4,20.41V76.85H7.52V23.92h113V76.85H124V20.41Z"/><path d="M4,93.3H55.9v4.6H34.09l-3.33,3.34v6.35H97.24v-6.35L93.91,97.9H72.1V93.3H124V79.78H4Zm88.45,8.12,1.28,1.28v1.38H34.27V102.7l1.28-1.28H64V97.9H59.41V93.3h9.18v8.12ZM7.52,83.3h113v6.48H7.52Z"/><path d="M118.45,88.3h-26V84.78h26V88.3Zm-28.3,0H86.64V84.78h3.51Zm-5.86,0H80.78V84.78h3.51Z"/><path d="M80.67,34H47.33A3.33,3.33,0,0,0,44,37.33V70.67A3.33,3.33,0,0,0,47.33,74H80.67A3.33,3.33,0,0,0,84,70.67V37.33A3.33,3.33,0,0,0,80.67,34ZM69.15,35.33l-.34,1.34H59.19l-.34-1.34ZM45.33,48.85l1.34.34v9.62l-1.34.34ZM58.85,72.67l.34-1.34h9.62l.34,1.34Zm21.82,0H70.52L70,70.5a.67.67,0,0,0-.65-.5H58.67a.67.67,0,0,0-.65.5l-.54,2.17H47.33a2,2,0,0,1-2-2V60.52L47.49,60a.66.66,0,0,0,.51-.65V48.67a.66.66,0,0,0-.51-.65l-2.16-.54V37.33a2,2,0,0,1,2-2H57.48L58,37.5a.67.67,0,0,0,.65.5H69.33a.67.67,0,0,0,.65-.5l.54-2.17H80.67a2,2,0,0,1,2,2V47.48L80.51,48a.66.66,0,0,0-.51.65V59.33a.66.66,0,0,0,.51.65l2.16.54V70.67A2,2,0,0,1,80.67,72.67Zm2-13.52-1.34-.34V49.19l1.34-.34Z"/><path d="M77.33,39.33H50.67a1.34,1.34,0,0,0-1.34,1.34V67.33a1.34,1.34,0,0,0,1.34,1.34H77.33a1.34,1.34,0,0,0,1.34-1.34V40.67A1.34,1.34,0,0,0,77.33,39.33Zm-26.66,28V40.67H77.33V67.33Z"/></svg>