<svg id="Capa_1" data-name="Capa 1" xmlns="http://www.w3.org/2000/svg" viewBox="0 0 128 128"><title>tv_procesador</title><g id="surface1"><path d="M81.5,31.74V27H79.83v4.23a5.69,5.69,0,0,0-.83-.06H77.33V27H75.67v4.17h-2.5V27H71.5v4.17H69V27H67.33v4.17h-2.5V27H63.17v4.17h-2.5V27H59v4.17H56.5V27H54.83v4.17h-2.5V27H50.67v4.17H49a5.69,5.69,0,0,0-.83.06V27H46.5v4.74a5.87,5.87,0,0,0-2.76,2.76H39v1.67h4.23a5.69,5.69,0,0,0-.06.83v1.67H39v1.66h4.17v2.5H39V44.5h4.17V47H39v1.67h4.17v2.5H39v1.66h4.17v2.5H39V57h4.17v2.5H39v1.67h4.17v2.5H39v1.66h4.17V67a5.69,5.69,0,0,0,.06.83H39V69.5h4.74a5.87,5.87,0,0,0,2.76,2.76V77h1.67V72.77a5.69,5.69,0,0,0,.83.06h1.67V77h1.66V72.83h2.5V77H56.5V72.83H59V77h1.67V72.83h2.5V77h1.66V72.83h2.5V77H69V72.83h2.5V77h1.67V72.83h2.5V77h1.66V72.83H79a5.69,5.69,0,0,0,.83-.06V77H81.5V72.26a5.87,5.87,0,0,0,2.76-2.76H89V67.83H84.77a5.69,5.69,0,0,0,.06-.83V65.33H89V63.67H84.83v-2.5H89V59.5H84.83V57H89V55.33H84.83v-2.5H89V51.17H84.83v-2.5H89V47H84.83V44.5H89V42.83H84.83v-2.5H89V38.67H84.83V37a5.69,5.69,0,0,0-.06-.83H89V34.5H84.26A5.87,5.87,0,0,0,81.5,31.74ZM83.17,67A4.19,4.19,0,0,1,79,71.17H49A4.19,4.19,0,0,1,44.83,67V37A4.19,4.19,0,0,1,49,32.83H79A4.19,4.19,0,0,1,83.17,37Z"/><path d="M78.17,35.33H49.83a2.5,2.5,0,0,0-2.5,2.5V66.17a2.5,2.5,0,0,0,2.5,2.5H78.17a2.5,2.5,0,0,0,2.5-2.5V37.83A2.5,2.5,0,0,0,78.17,35.33ZM79,66.17a.83.83,0,0,1-.83.83H49.83a.83.83,0,0,1-.83-.83V37.83a.83.83,0,0,1,.83-.83H78.17a.83.83,0,0,1,.83.83Z"/><path d="M75.67,38.67h1.66v1.66H75.67Z"/><path d="M50.67,63.67h1.66v1.66H50.67Z"/><path d="M50.67,40.33v2.5h1.66v-2.5h2.5V38.67h-2.5A1.66,1.66,0,0,0,50.67,40.33Z"/><path d="M75.67,63.67h-2.5v1.66h4.16V61.17H75.67Z"/></g><path d="M4,20.41V76.85H7.52V23.92h113V76.85H124V20.41Z"/><path d="M4,93.3H55.9v4.6H34.09l-3.33,3.34v6.35H97.24v-6.35L93.91,97.9H72.1V93.3H124V79.78H4Zm88.45,8.12,1.28,1.28v1.38H34.27V102.7l1.28-1.28H64V97.9H59.41V93.3h9.18v8.12ZM7.52,83.3h113v6.48H7.52Z"/><path d="M118.45,88.3h-26V84.78h26V88.3Zm-28.3,0H86.64V84.78h3.51Zm-5.86,0H80.78V84.78h3.51Z"/></svg>