<svg id="Capa_1" data-name="Capa 1" xmlns="http://www.w3.org/2000/svg" viewBox="0 0 128 128"><title>tv_rom</title><path d="M36,33.4V72.6a2.8,2.8,0,0,0,2.8,2.8H89.2A2.8,2.8,0,0,0,92,72.6V33.4a2.8,2.8,0,0,0-2.8-2.8H38.8A2.8,2.8,0,0,0,36,33.4Zm53.2-.93a.92.92,0,0,1,.93.93V72.6a.92.92,0,0,1-.93.93H38.8a.92.92,0,0,1-.93-.93V33.4a.92.92,0,0,1,.93-.93Z"/><path d="M68.67,41.8A11.22,11.22,0,0,1,79.87,53h1.86A13.08,13.08,0,0,0,68.67,39.93Z"/><path d="M51.87,53a16.8,16.8,0,1,0,16.8-16.8A16.8,16.8,0,0,0,51.87,53ZM83.6,53A14.94,14.94,0,1,1,68.67,38.07,14.93,14.93,0,0,1,83.6,53Z"/><path d="M82.67,68.87a2.8,2.8,0,1,0,2.8-2.8A2.8,2.8,0,0,0,82.67,68.87Zm3.73,0a.94.94,0,1,1-.93-.94A.93.93,0,0,1,86.4,68.87Z"/><path d="M82.67,37.13a2.8,2.8,0,1,0,2.8-2.8A2.8,2.8,0,0,0,82.67,37.13Zm3.73,0a.94.94,0,1,1-.93-.93A.94.94,0,0,1,86.4,37.13Z"/><path d="M45.33,68.87a2.8,2.8,0,1,0-2.8,2.8A2.8,2.8,0,0,0,45.33,68.87Zm-3.73,0a.94.94,0,1,1,.93.93A.94.94,0,0,1,41.6,68.87Z"/><path d="M39.73,37.13a2.8,2.8,0,1,0,2.8-2.8A2.8,2.8,0,0,0,39.73,37.13Zm3.74,0a.94.94,0,1,1-.94-.93A.94.94,0,0,1,43.47,37.13Z"/><path d="M68.67,49.27A3.73,3.73,0,1,0,72.4,53,3.73,3.73,0,0,0,68.67,49.27Zm0,5.6A1.87,1.87,0,1,1,70.53,53,1.87,1.87,0,0,1,68.67,54.87Z"/><path d="M41.6,64.2V41.8h1.87V64.2Z"/><path d="M45.33,64.2V41.8H47.2V64.2Z"/><path d="M4,20.41V76.85H7.52V23.92h113V76.85H124V20.41Z"/><path d="M4,93.3H55.9v4.6H34.09l-3.33,3.34v6.35H97.24v-6.35L93.91,97.9H72.1V93.3H124V79.78H4Zm88.45,8.12,1.28,1.28v1.38H34.27V102.7l1.28-1.28H64V97.9H59.41V93.3h9.18v8.12ZM7.52,83.3h113v6.48H7.52Z"/><path d="M118.45,88.3h-26V84.78h26V88.3Zm-28.3,0H86.64V84.78h3.51Zm-5.86,0H80.78V84.78h3.51Z"/></svg>