<svg id="Capa_1" data-name="Capa 1" xmlns="http://www.w3.org/2000/svg" viewBox="0 0 128 128"><title>tv_ram</title><path d="M43.23,49.61V44.89a.61.61,0,0,1,.61-.61H84.16a.61.61,0,0,1,.61.61V49.6a.86.86,0,0,0,.86.85.85.85,0,0,0,.85-.85V44.89a2.32,2.32,0,0,0-2.32-2.32H43.84a2.32,2.32,0,0,0-2.32,2.32v4.72a.85.85,0,0,0,.85.85A.86.86,0,0,0,43.23,49.61Z"/><path d="M86.48,59.11V54a.85.85,0,0,0-.85-.85.86.86,0,0,0-.86.85v5.16a.61.61,0,0,1-.61.61H43.84a.61.61,0,0,1-.61-.61V54a.86.86,0,0,0-.86-.85.85.85,0,0,0-.85.85v5.15a2.32,2.32,0,0,0,2.32,2.32H84.16A2.32,2.32,0,0,0,86.48,59.11Z"/><path d="M70.83,74.39a2.54,2.54,0,0,0,2.54,2.54h2.26a2.54,2.54,0,0,0,2.54-2.54V69h3.15v5.44h0a2.54,2.54,0,0,0,2.54,2.54h2.27a2.54,2.54,0,0,0,2.54-2.54V69h2A3.32,3.32,0,0,0,94,65.64V38.36a3.32,3.32,0,0,0-3.31-3.31h-2V29.61a2.54,2.54,0,0,0-2.54-2.54H83.86a2.54,2.54,0,0,0-2.54,2.54v5.44H78.17V29.61a2.54,2.54,0,0,0-2.54-2.54H73.37a2.54,2.54,0,0,0-2.54,2.54v5.44H67.67V29.61a2.54,2.54,0,0,0-2.54-2.54H62.87a2.54,2.54,0,0,0-2.54,2.54v5.44H57.17V29.61a2.54,2.54,0,0,0-2.54-2.54H52.37a2.54,2.54,0,0,0-2.54,2.54v5.44H46.68V29.61a2.54,2.54,0,0,0-2.54-2.54H41.87a2.54,2.54,0,0,0-2.54,2.54v5.44h-2A3.32,3.32,0,0,0,34,38.36V65.64A3.32,3.32,0,0,0,37.31,69h2v5.44a2.54,2.54,0,0,0,2.54,2.54h2.27a2.54,2.54,0,0,0,2.54-2.54V69h3.15v5.44a2.54,2.54,0,0,0,2.54,2.54h2.26a2.54,2.54,0,0,0,2.54-2.54V69h3.16v5.44a2.54,2.54,0,0,0,2.54,2.54h2.26a2.54,2.54,0,0,0,2.54-2.54V69h3.16ZM87,69v5.44a.83.83,0,0,1-.83.83H83.86a.83.83,0,0,1-.83-.83V69Zm-10.5,0v5.44a.83.83,0,0,1-.83.83H73.37a.84.84,0,0,1-.84-.83V69ZM41,35.05V29.61a.83.83,0,0,1,.83-.83h2.27a.83.83,0,0,1,.83.83v5.44Zm10.5,0V29.61a.83.83,0,0,1,.83-.83h2.26a.84.84,0,0,1,.84.83v5.44Zm10.5,0V29.61a.83.83,0,0,1,.83-.83h2.26a.83.83,0,0,1,.83.83v5.44Zm10.49,0V29.61a.84.84,0,0,1,.84-.83h2.26a.83.83,0,0,1,.83.83v5.44Zm10.5,0V29.61a.83.83,0,0,1,.83-.83h2.27a.83.83,0,0,1,.83.83v5.44ZM37.31,67.24a1.6,1.6,0,0,1-1.6-1.6V38.36a1.6,1.6,0,0,1,1.6-1.6H90.69a1.6,1.6,0,0,1,1.6,1.6V65.64a1.6,1.6,0,0,1-1.6,1.6ZM45,74.39a.83.83,0,0,1-.83.83H41.87a.83.83,0,0,1-.83-.83V69H45Zm10.5,0a.84.84,0,0,1-.84.83H52.37a.83.83,0,0,1-.83-.83V69h3.93Zm10.49,0a.83.83,0,0,1-.83.83H62.87a.83.83,0,0,1-.83-.83V69H66v5.44Z"/><path d="M58.12,55.74a.45.45,0,0,0,.44.34h.66a.45.45,0,0,0,.43-.59c-.3-.92-.65-2-1-3.2a1.78,1.78,0,0,0,.48-.3,1.76,1.76,0,0,0,.32-.37,2.24,2.24,0,0,0,.17-.44,2.86,2.86,0,0,0,.08-.43c0-.13,0-.28,0-.44a2.35,2.35,0,0,0-.17-1,1.55,1.55,0,0,0-.51-.64,2.14,2.14,0,0,0-.78-.35,4.52,4.52,0,0,0-1-.11H55.92a.45.45,0,0,0-.45.45v6.93a.45.45,0,0,0,.45.45h.68a.45.45,0,0,0,.45-.45V52.47h.26Zm-1.07-4.23v-2.1h.53a.38.38,0,0,1,.28.12.63.63,0,0,1,.16.29,2.46,2.46,0,0,1,.07.33,2.83,2.83,0,0,1,0,.29c0,.09,0,.19,0,.29a3,3,0,0,1-.09.35.67.67,0,0,1-.19.3.4.4,0,0,1-.31.13Z"/><path d="M63.7,55.78a.38.38,0,0,0,.36.3h.81a.38.38,0,0,0,.36-.45L63.7,48.54a.37.37,0,0,0-.36-.29h-.81a.37.37,0,0,0-.36.29l-1.53,7.09a.37.37,0,0,0,.36.45h.81a.37.37,0,0,0,.36-.31l.25-1.37h1Zm-1.17-2.35.41-2.91.39,2.91Z"/><path d="M67.62,55.81l0-5.27.93,5.31a.27.27,0,0,0,.26.23h.72a.27.27,0,0,0,.27-.23c.09-.57.23-1.42.42-2.53.22-1.27.37-2.18.46-2.75l0,5.24a.28.28,0,0,0,.28.27h.62a.28.28,0,0,0,.27-.28V48.52a.27.27,0,0,0-.27-.27H70.31a.28.28,0,0,0-.27.23l-.86,5-.8-5a.27.27,0,0,0-.27-.23H66.72a.27.27,0,0,0-.27.27V55.8a.28.28,0,0,0,.27.28h.63A.27.27,0,0,0,67.62,55.81Z"/><path d="M4,20.41V76.85H7.52V23.92h113V76.85H124V20.41Z"/><path d="M4,93.3H55.9v4.6H34.09l-3.33,3.34v6.35H97.24v-6.35L93.91,97.9H72.1V93.3H124V79.78H4Zm88.45,8.12,1.28,1.28v1.38H34.27V102.7l1.28-1.28H64V97.9H59.41V93.3h9.18v8.12ZM7.52,83.3h113v6.48H7.52Z"/><path d="M118.45,88.3h-26V84.78h26V88.3Zm-28.3,0H86.64V84.78h3.51Zm-5.86,0H80.78V84.78h3.51Z"/></svg>