<svg id="Capa_1" data-name="Capa 1" xmlns="http://www.w3.org/2000/svg" viewBox="0 0 128 128"><title>tv_sistema</title><path d="M45.65,42.38h36.7v2.3H45.65Z"/><path d="M67.44,47H82.35v2.3H67.44Z"/><path d="M45.65,47H60.56v2.3H45.65Z"/><path d="M67.44,37.8H82.35v2.29H67.44Z"/><path d="M45.65,37.8H60.56v2.29H45.65Z"/><path d="M45.65,33.21h36.7V35.5H45.65Z"/><path d="M89.23,39.14V33.21a6.88,6.88,0,0,0-6.88-6.88v2.29a4.6,4.6,0,0,1,4.59,4.59v5.93a8.93,8.93,0,0,0,1.91,5.54,8.88,8.88,0,0,0-1.91,5.54v5.93a4.59,4.59,0,0,1-4.59,4.58V63a6.89,6.89,0,0,0,6.88-6.88V50.22a6.65,6.65,0,0,1,2-4.73l.81-.81-.81-.81A6.67,6.67,0,0,1,89.23,39.14Z"/><path d="M41.06,56.15V50.22a8.88,8.88,0,0,0-1.91-5.54,8.93,8.93,0,0,0,1.91-5.54V33.21a4.6,4.6,0,0,1,4.59-4.59V26.33a6.88,6.88,0,0,0-6.88,6.88v5.93a6.67,6.67,0,0,1-2,4.73l-.81.81.81.81a6.65,6.65,0,0,1,2,4.73v5.93A6.89,6.89,0,0,0,45.65,63v-2.3A4.59,4.59,0,0,1,41.06,56.15Z"/><path d="M64,63a4.59,4.59,0,1,0,4.59,4.59A4.6,4.6,0,0,0,64,63Zm0,6.88a2.3,2.3,0,1,1,2.29-2.29A2.29,2.29,0,0,1,64,69.91Z"/><path d="M64,58.44a9.26,9.26,0,0,0-4.37,1.1l1.1,2a6.88,6.88,0,0,1,9.32,9.33l2,1.09A9.17,9.17,0,0,0,64,58.44Z"/><path d="M64,74.5a6.88,6.88,0,0,1-6-10.16l-2-1.09A9.18,9.18,0,0,0,68.37,75.69l-1.1-2A6.91,6.91,0,0,1,64,74.5Z"/><path d="M80.06,64.43l-2.87-.72a14.66,14.66,0,0,0-1.1-2.65l1.52-2.54L73.1,54l-2.54,1.52a13.35,13.35,0,0,0-2.65-1.1l-.72-2.87H60.81l-.72,2.87a13.6,13.6,0,0,0-2.65,1.1L54.9,54l-4.51,4.51,1.53,2.53a13.69,13.69,0,0,0-1.1,2.66l-2.88.72V70.8l2.87.72a14.66,14.66,0,0,0,1.1,2.65l-1.52,2.54,4.51,4.51,2.54-1.52a13.35,13.35,0,0,0,2.65,1.1l.72,2.87h6.38l.72-2.87a13.6,13.6,0,0,0,2.65-1.1l2.54,1.53,4.51-4.51-1.53-2.54a13.6,13.6,0,0,0,1.1-2.65l2.88-.73ZM77.76,69l-2.46.62-.16.68a11.62,11.62,0,0,1-1.36,3.28l-.37.59,1.31,2.18-2,2L70.57,77l-.6.36a11.22,11.22,0,0,1-3.28,1.36l-.68.17-.61,2.46H62.6L62,78.92l-.68-.17A11,11,0,0,1,58,77.39L57.44,77l-2.18,1.31-2-2,1.31-2.18-.37-.59a11.62,11.62,0,0,1-1.36-3.28l-.16-.68L50.24,69V66.22l2.46-.62.16-.67a11.56,11.56,0,0,1,1.36-3.29l.37-.59-1.31-2.18,2-2,2.17,1.3.6-.36a11.5,11.5,0,0,1,3.28-1.36l.68-.16.61-2.47h2.8L66,56.31l.68.17A11.22,11.22,0,0,1,70,57.84l.59.36,2.18-1.31,2,2-1.31,2.18.37.59a11.62,11.62,0,0,1,1.36,3.28l.16.68,2.46.62Z"/><path d="M4,20.41V76.85H7.52V23.92h113V76.85H124V20.41Z"/><path d="M4,93.3H55.9v4.6H34.09l-3.33,3.34v6.35H97.24v-6.35L93.91,97.9H72.1V93.3H124V79.78H4Zm88.45,8.12,1.28,1.28v1.38H34.27V102.7l1.28-1.28H64V97.9H59.41V93.3h9.18v8.12ZM7.52,83.3h113v6.48H7.52Z"/><path d="M118.45,88.3h-26V84.78h26V88.3Zm-28.3,0H86.64V84.78h3.51Zm-5.86,0H80.78V84.78h3.51Z"/></svg>